<svg width="19" height="19" viewBox="0 0 19 19" fill="none" xmlns="http://www.w3.org/2000/svg">
<path d="M18.7681 0.231789C18.6197 0.0833747 18.4183 0 18.2084 0C17.9985 0 17.7972 0.0833747 17.6487 0.231789L9.50008 8.38041L1.35145 0.231789C1.20299 0.0833747 1.00166 0 0.791742 0C0.58182 0 0.380493 0.0833747 0.232033 0.231789C0.0836188 0.380249 0.000244141 0.581576 0.000244141 0.791498C0.000244141 1.00142 0.0836188 1.20275 0.232033 1.35121L8.38066 9.49983L0.232033 17.6485C0.0836188 17.7969 0.000244141 17.9982 0.000244141 18.2082C0.000244141 18.4181 0.0836188 18.6194 0.232033 18.7679C0.380493 18.9163 0.58182 18.9997 0.791742 18.9997C1.00166 18.9997 1.20299 18.9163 1.35145 18.7679L9.50008 10.6192L17.6487 18.7679C17.7972 18.9163 17.9985 18.9997 18.2084 18.9997C18.4183 18.9997 18.6197 18.9163 18.7681 18.7679C18.9165 18.6194 18.9999 18.4181 18.9999 18.2082C18.9999 17.9982 18.9165 17.7969 18.7681 17.6485L10.6195 9.49983L18.7681 1.35121C18.9165 1.20275 18.9999 1.00142 18.9999 0.791498C18.9999 0.581576 18.9165 0.380249 18.7681 0.231789Z" fill="black"/>
</svg>
