<svg width="22" height="22" viewBox="0 0 22 22" fill="none" xmlns="http://www.w3.org/2000/svg">
<path d="M20.7858 22.0001C21.4563 22.0001 22 21.4564 22 20.7859V1.21421C22 0.543555 21.4563 0 20.7858 0H1.21421C0.543469 0 0 0.543555 0 1.21421V20.7859C0 21.4564 0.543469 22.0001 1.21421 22.0001H20.7858Z" fill="#395185"/>
<path d="M15.1796 22.0001V13.4805H18.0393L18.4675 10.1603H15.1796V8.04038C15.1796 7.07908 15.4466 6.42398 16.8251 6.42398L18.5833 6.42321V3.45364C18.2791 3.41316 17.2355 3.32275 16.0214 3.32275C13.4864 3.32275 11.751 4.87006 11.751 7.71167V10.1603H8.88391V13.4805H11.751V22.0001H15.1796Z" fill="white"/>
</svg>
