<svg width="21" height="21" viewBox="0 0 21 21" fill="none" xmlns="http://www.w3.org/2000/svg">
<path d="M20.7141 8.45994H19.875V8.41671H10.5V12.5834H16.387C15.5282 15.0089 13.2204 16.75 10.5 16.75C7.04848 16.75 4.25004 13.9516 4.25004 10.5C4.25004 7.04848 7.04848 4.25004 10.5 4.25004C12.0933 4.25004 13.5428 4.85108 14.6464 5.83285L17.5928 2.8865C15.7323 1.15264 13.2438 0.083374 10.5 0.083374C4.74744 0.083374 0.083374 4.74744 0.083374 10.5C0.083374 16.2526 4.74744 20.9167 10.5 20.9167C16.2526 20.9167 20.9167 16.2526 20.9167 10.5C20.9167 9.8016 20.8448 9.11983 20.7141 8.45994Z" fill="#FFC107"/>
<path d="M1.28467 5.6516L4.70706 8.1615C5.63311 5.86879 7.87581 4.25004 10.5003 4.25004C12.0935 4.25004 13.543 4.85108 14.6466 5.83285L17.593 2.8865C15.7326 1.15264 13.244 0.083374 10.5003 0.083374C6.49925 0.083374 3.02946 2.34223 1.28467 5.6516Z" fill="#FF3D00"/>
<path d="M20.7141 8.45986H19.875V8.41663H10.5V12.5833H16.387C15.9762 13.7377 15.2361 14.7464 14.2583 15.4849L14.2599 15.4838L17.4839 18.2119C17.2557 18.4192 20.9167 15.7083 20.9167 10.5C20.9167 9.80152 20.8448 9.11975 20.7141 8.45986Z" fill="#1976D2"/>
</svg>
