<svg width="31" height="31" viewBox="0 0 31 31" fill="none" xmlns="http://www.w3.org/2000/svg">
<path d="M20.3 15.4996C20.3 16.7329 19.8101 17.9156 18.9381 18.7877C18.066 19.6597 16.8833 20.1496 15.65 20.1496C14.4168 20.1496 13.234 19.6597 12.362 18.7877C11.4899 17.9156 11 16.7329 11 15.4996C11 15.2346 11.0279 14.9757 11.076 14.7246H9.45002V20.92C9.45002 21.3509 9.79877 21.6996 10.2297 21.6996H21.0719C21.2784 21.6992 21.4763 21.6169 21.6222 21.4707C21.7681 21.3246 21.85 21.1265 21.85 20.92V14.7246H20.2241C20.2721 14.9757 20.3 15.2346 20.3 15.4996V15.4996ZM15.65 18.5996C16.0572 18.5995 16.4604 18.5192 16.8366 18.3633C17.2127 18.2074 17.5545 17.9789 17.8424 17.6909C18.1302 17.4029 18.3586 17.061 18.5143 16.6848C18.67 16.3085 18.7501 15.9053 18.75 15.4981C18.7499 15.0909 18.6696 14.6877 18.5137 14.3115C18.3578 13.9354 18.1293 13.5936 17.8413 13.3057C17.5533 13.0179 17.2114 12.7895 16.8351 12.6338C16.4589 12.4781 16.0557 12.398 15.6485 12.3981C14.8261 12.3983 14.0375 12.7252 13.4561 13.3068C12.8748 13.8885 12.5483 14.6773 12.5485 15.4996C12.5487 16.322 12.8756 17.1106 13.4572 17.692C14.0389 18.2733 14.8276 18.5998 15.65 18.5996V18.5996ZM19.37 12.2446H21.2285C21.3519 12.2446 21.4704 12.1957 21.5578 12.1085C21.6453 12.0214 21.6946 11.9031 21.695 11.7796V9.92118C21.695 9.79744 21.6459 9.67877 21.5584 9.59128C21.4709 9.50378 21.3522 9.45463 21.2285 9.45463H19.37C19.2463 9.45463 19.1276 9.50378 19.0401 9.59128C18.9526 9.67877 18.9035 9.79744 18.9035 9.92118V11.7796C18.905 12.0354 19.1143 12.2446 19.37 12.2446V12.2446ZM15.65 0.619629C11.7036 0.619629 7.91881 2.18734 5.12827 4.97788C2.33773 7.76842 0.77002 11.5532 0.77002 15.4996C0.77002 19.4461 2.33773 23.2308 5.12827 26.0214C7.91881 28.8119 11.7036 30.3796 15.65 30.3796C17.6041 30.3796 19.539 29.9947 21.3444 29.247C23.1497 28.4992 24.79 27.4031 26.1718 26.0214C27.5535 24.6396 28.6496 22.9993 29.3973 21.194C30.1451 19.3886 30.53 17.4537 30.53 15.4996C30.53 13.5456 30.1451 11.6106 29.3973 9.8053C28.6496 7.99997 27.5535 6.35962 26.1718 4.97788C24.79 3.59614 23.1497 2.50009 21.3444 1.7523C19.539 1.00451 17.6041 0.619629 15.65 0.619629V0.619629ZM23.4 21.5276C23.4 22.4746 22.625 23.2496 21.678 23.2496H9.62207C8.67502 23.2496 7.90002 22.4746 7.90002 21.5276V9.47168C7.90002 8.52463 8.67502 7.74963 9.62207 7.74963H21.678C22.625 7.74963 23.4 8.52463 23.4 9.47168V21.5276V21.5276Z" fill="black"/>
</svg>
