<svg width="71" height="71" viewBox="0 0 71 71" fill="none" xmlns="http://www.w3.org/2000/svg">
<circle cx="35.5" cy="35.5" r="35.5" fill="#82DE1B"/>
<path d="M35.3516 26.3186C34.4465 26.3186 33.5617 26.587 32.8092 27.0898C32.0566 27.5927 31.4701 28.3074 31.1237 29.1436C30.7774 29.9797 30.6867 30.8999 30.8633 31.7875C31.0399 32.6752 31.4757 33.4906 32.1157 34.1306C32.7557 34.7706 33.5711 35.2064 34.4588 35.383C35.3465 35.5596 36.2666 35.469 37.1028 35.1226C37.939 34.7762 38.6537 34.1897 39.1565 33.4372C39.6593 32.6846 39.9277 31.7999 39.9277 30.8948C39.9264 29.6815 39.4438 28.5184 38.5859 27.6605C37.728 26.8026 36.5648 26.32 35.3516 26.3186ZM35.3516 33.1829C34.899 33.1829 34.4566 33.0487 34.0804 32.7972C33.7041 32.5458 33.4108 32.1885 33.2376 31.7704C33.0645 31.3523 33.0192 30.8922 33.1074 30.4484C33.1957 30.0045 33.4136 29.5968 33.7336 29.2769C34.0536 28.9569 34.4613 28.7389 34.9052 28.6507C35.349 28.5624 35.8091 28.6077 36.2272 28.7809C36.6453 28.954 37.0026 29.2473 37.254 29.6236C37.5055 29.9999 37.6397 30.4422 37.6397 30.8948C37.639 31.5014 37.3977 32.083 36.9687 32.5119C36.5398 32.9409 35.9582 33.1822 35.3516 33.1829Z" fill="white"/>
<path d="M44.1451 22.0943C41.9709 19.9206 39.0686 18.6294 35.9983 18.4698C32.9281 18.3102 29.9075 19.2935 27.5196 21.23C25.1318 23.1665 23.5458 25.9188 23.0679 28.9559C22.5901 31.9929 23.2541 35.0993 24.9319 37.6755L33.577 50.9473C33.7694 51.2427 34.0325 51.4853 34.3423 51.6533C34.6522 51.8212 34.9991 51.9092 35.3516 51.9092C35.704 51.9092 36.0509 51.8212 36.3608 51.6533C36.6706 51.4853 36.9337 51.2427 37.1261 50.9473L45.7715 37.6755C47.3283 35.2857 48.0163 32.4333 47.7202 29.5966C47.4241 26.7598 46.1618 24.1111 44.1451 22.0943ZM43.8544 36.4266L35.3516 49.4794L26.8487 36.4266C24.246 32.4311 24.8042 27.0841 28.176 23.7122C29.1183 22.7698 30.237 22.0224 31.4682 21.5124C32.6994 21.0024 34.019 20.7399 35.3516 20.7399C36.6842 20.7399 38.0038 21.0024 39.235 21.5124C40.4662 22.0224 41.5849 22.7698 42.5272 23.7122C45.8989 27.0841 46.4571 32.4311 43.8544 36.4266Z" fill="white"/>
</svg>
