<svg width="20" height="20" viewBox="0 0 20 20" fill="none" xmlns="http://www.w3.org/2000/svg">
<circle cx="9.77158" cy="10.252" r="9.5748" fill="#82DE1B"/>
<path d="M12.1032 6.6364C11.5168 6.05014 10.734 5.70187 9.90595 5.65882C9.07786 5.61577 8.26318 5.88099 7.61914 6.40328C6.9751 6.92558 6.54736 7.66792 6.41846 8.48705C6.28957 9.30617 6.46867 10.144 6.92119 10.8389L9.2529 14.4184C9.30479 14.4981 9.37574 14.5635 9.45931 14.6088C9.54289 14.6541 9.63645 14.6779 9.73151 14.6779C9.82657 14.6779 9.92013 14.6541 10.0037 14.6088C10.0873 14.5635 10.1582 14.4981 10.2101 14.4184L12.5419 10.8389C12.9618 10.1943 13.1474 9.42497 13.0675 8.65987C12.9876 7.89476 12.6472 7.18035 12.1032 6.6364ZM12.0248 10.502L9.73152 14.0225L7.43818 10.502C6.7362 9.42436 6.88676 7.98221 7.79617 7.07276C8.05033 6.81861 8.35205 6.617 8.68412 6.47945C9.01618 6.3419 9.37209 6.2711 9.73152 6.2711C10.0909 6.2711 10.4469 6.3419 10.7789 6.47945C11.111 6.617 11.4127 6.81861 11.6669 7.07276C12.5763 7.98221 12.7268 9.42436 12.0248 10.502Z" fill="white"/>
</svg>
