<svg width="287" height="216" viewBox="0 0 287 216" fill="none" xmlns="http://www.w3.org/2000/svg">
<g clip-path="url(#clip0_32_2041)">
<path d="M262.245 192.054L262.676 182.367C267.167 179.967 272.176 178.699 277.268 178.673C270.26 184.403 271.136 195.449 266.384 203.155C264.883 205.547 262.864 207.57 260.475 209.076C258.086 210.581 255.389 211.53 252.584 211.851L246.719 215.442C245.914 210.955 246.092 206.348 247.239 201.936C248.387 197.525 250.477 193.415 253.366 189.889C255.006 187.927 256.887 186.179 258.963 184.687C260.368 188.391 262.245 192.054 262.245 192.054Z" fill="#F2F2F2"/>
<path d="M60.8882 105.935C60.5007 105.582 60.1954 105.147 59.9939 104.663C59.7924 104.179 59.6996 103.656 59.7219 103.132C59.7442 102.608 59.8812 102.095 60.1232 101.629C60.3653 101.164 60.7064 100.757 61.1226 100.437L57.1045 88.334L63.5047 90.0534L66.3391 101.284C66.8293 102.018 67.033 102.907 66.9115 103.782C66.79 104.657 66.3518 105.457 65.6799 106.031C65.008 106.604 64.1491 106.911 63.266 106.893C62.3828 106.876 61.5368 106.535 60.8882 105.935V105.935Z" fill="#A0616A"/>
<path d="M72.4878 40.1751C73.5498 40.7839 79.833 39.2754 81.06 39.7045C80.3827 43.8374 84.0617 42.2865 80.0666 47.7141C76.0715 53.1417 68.0248 69.4152 66.1968 75.4973C64.3689 81.5794 66.1781 90.1507 65.9044 93.0333C65.7721 94.7035 65.7803 96.3818 65.929 98.0506C63.7705 98.0233 61.643 98.4712 59.4507 98.1851C57.1128 91.5698 55.5409 82.1535 54.4735 76.9494C53.4061 71.7453 53.3671 73.9461 53.8566 71.3439C54.3462 68.7417 54.4647 70.6327 53.9504 68.1432C53.4362 65.6538 55.516 62.526 57.4377 60.7425C58.2662 58.3594 59.337 56.1373 60.1573 53.7791C66.1684 48.5353 66.5636 45.5061 72.4878 40.1751Z" fill="#82DE1B"/>
<path d="M247.133 208.729H241.822L239.296 188.245H247.134L247.133 208.729Z" fill="#FFB6B6"/>
<path d="M248.487 213.877L231.363 213.876V213.66C231.363 211.892 232.065 210.197 233.315 208.947C234.565 207.697 236.261 206.995 238.028 206.995H238.029L241.157 204.622L246.993 206.995L248.487 206.995L248.487 213.877Z" fill="#2F2E41"/>
<path d="M222.46 208.729H217.149L214.623 188.245H222.461L222.46 208.729Z" fill="#FFB6B6"/>
<path d="M223.814 213.877L206.69 213.876V213.66C206.69 211.892 207.393 210.197 208.643 208.947C209.892 207.697 211.588 206.995 213.355 206.995H213.356L216.484 204.622L222.32 206.995L223.815 206.995L223.814 213.877Z" fill="#2F2E41"/>
<path d="M220.161 96.74L254.704 97.6036C261.265 101.167 261.365 108.879 259.215 118.036C259.215 118.036 259.941 123.479 258.489 124.93C257.038 126.381 256.312 126.381 257.038 128.921C257.764 131.461 253.93 135.609 254.395 136.075C254.861 136.541 255.949 139.081 255.949 139.081L252.321 159.762C252.321 159.762 249.781 195.683 249.056 196.408C248.33 197.134 247.604 196.409 248.33 198.223C249.056 200.037 249.781 199.311 249.056 200.037C248.413 200.73 247.807 201.457 247.241 202.214H238.469C238.469 202.214 237.808 198.586 237.808 198.223C237.808 197.86 237.082 195.683 237.082 195.32C237.082 194.957 237.723 194.316 237.723 194.316C237.945 193.578 238.095 192.821 238.171 192.054C238.171 191.329 240.348 163.391 240.348 163.391L235.994 127.107L225.471 162.665C225.471 162.665 225.471 193.869 224.746 194.594C224.02 195.32 224.02 194.957 224.383 196.408C224.746 197.86 226.197 197.497 225.108 198.586C224.02 199.674 223.657 197.86 224.02 199.674L224.383 201.488L213.498 201.644C213.498 201.644 212.046 198.586 212.772 197.497C213.498 196.409 213.454 196.706 212.569 194.924C211.684 193.143 211.321 192.78 211.684 192.417C212.046 192.054 212.046 190.125 212.046 190.125L213.861 155.408C213.861 155.408 214.223 118.762 214.223 117.673C214.251 117.113 214.148 116.554 213.922 116.041V114.563L215.312 109.328L220.161 96.74Z" fill="#2F2E41"/>
<path d="M240.912 24.9125C246.84 24.9125 251.645 20.1072 251.645 14.1796C251.645 8.25204 246.84 3.44678 240.912 3.44678C234.984 3.44678 230.179 8.25204 230.179 14.1796C230.179 20.1072 234.984 24.9125 240.912 24.9125Z" fill="#FFB6B6"/>
<path d="M235.546 32.0061C233.233 33.3807 231.85 35.9064 231.056 38.4765C229.586 43.2349 228.701 48.1545 228.421 53.1268L227.582 68.013L217.196 99.71C226.198 107.327 260.034 101.441 260.034 101.441C260.034 101.441 261.072 101.095 260.034 100.056C258.995 99.0175 257.984 99.9377 259.023 98.899C260.061 97.8604 259.345 99.0175 258.999 97.9788C258.653 96.9401 258.999 97.6326 259.345 97.2864C259.691 96.9401 256.665 93.8242 256.665 93.8242L259.435 75.6298L262.897 38.9304C258.742 33.7371 250.387 30.6757 250.387 30.6757L248.228 26.7896L237.433 27.6531L235.546 32.0061Z" fill="#3F3D56"/>
<path d="M234.073 7.8807C234.489 7.88394 234.902 7.93817 235.304 8.04218C236.097 8.23273 236.902 8.36772 237.713 8.44615C240.198 8.67991 242.532 9.73954 244.344 11.4558C246.156 13.1721 247.34 15.446 247.708 17.9144C248.332 17.3706 249.751 16.3704 250.914 17.3C250.932 17.3148 250.942 17.3224 250.983 17.303C251.756 16.9365 253.127 12.4259 253.168 8.45437C253.19 6.34643 252.858 3.65468 251.154 2.80227L251.064 2.75736L251.04 2.65974C250.926 2.18557 249.654 1.37617 247.442 0.746193C243.423 -0.398651 237.55 -0.564159 234.176 2.71794C233.921 3.82441 232.972 4.12759 232.132 4.39598C231.203 4.69306 230.401 4.94943 230.274 6.0892C230.169 7.7112 230.176 9.3386 230.297 10.9595C230.612 9.96767 231.23 9.09953 232.064 8.47736C232.657 8.07807 233.358 7.86985 234.073 7.8807Z" fill="#2F2E41"/>
<path d="M214.096 67.1845L231.628 55.9564L222.798 44.218L214.079 54.9438L186.911 56.61C186.196 55.9037 185.291 55.4205 184.307 55.2194C183.323 55.0183 182.301 55.108 181.367 55.4775C180.432 55.847 179.626 56.4804 179.045 57.3004C178.464 58.1205 178.135 59.0917 178.097 60.0958C178.059 61.0998 178.313 62.0933 178.83 62.955C179.347 63.8167 180.103 64.5095 181.007 64.9488C181.91 65.3881 182.922 65.5551 183.919 65.4292C184.916 65.3034 185.855 64.8902 186.621 64.2401L214.096 67.1845Z" fill="#FFB6B6"/>
<path d="M247.901 40.284C248.918 46.4421 229.703 58.2014 229.703 58.2014C229.702 56.756 218.234 67.6679 217.716 66.4691C216.245 63.0621 215.21 54.9925 213.154 53.7009C211.978 52.9623 220.235 46.0233 220.235 46.0233C220.235 46.0233 224.557 41.6692 230.229 36.1771C231.804 34.5947 233.753 33.4364 235.896 32.81C238.039 32.1837 240.305 32.1097 242.484 32.5949C242.484 32.5949 246.883 34.126 247.901 40.284Z" fill="#3F3D56"/>
<path d="M228.365 110.989C228.373 117.579 227.269 124.123 225.101 130.346C225.002 130.636 224.898 130.921 224.794 131.21C220.356 143.265 212.1 153.539 201.283 160.468C200.545 160.943 199.798 161.397 199.038 161.837C190.396 166.847 180.614 169.556 170.626 169.704C170.298 169.709 169.97 169.713 169.641 169.713C169.218 169.713 168.799 169.709 168.381 169.7C158.379 169.501 148.597 166.739 139.969 161.677C139.209 161.233 138.46 160.771 137.723 160.291C125.714 152.507 116.958 140.608 113.097 126.828C109.236 113.047 110.535 98.331 116.751 85.44C116.889 85.1507 117.032 84.8657 117.179 84.5764C122.074 74.8612 129.571 66.6962 138.834 60.9912C148.097 55.2862 158.762 52.2654 169.641 52.2654C180.52 52.2654 191.186 55.2862 200.449 60.9912C209.712 66.6962 217.209 74.8612 222.104 84.5764C222.251 84.8657 222.394 85.1507 222.532 85.44C226.384 93.4054 228.379 102.141 228.365 110.989Z" fill="#F2F2F2"/>
<path d="M210.195 130.346V131.21H215.455V130.346H210.195ZM199.677 130.346V131.21H204.936V130.346H199.677ZM189.159 130.346V131.21H194.418V130.346H189.159ZM178.64 130.346V131.21H183.899V130.346H178.64ZM168.122 130.346V131.21H173.381V130.346H168.122ZM157.603 130.346V131.21H162.862V130.346H157.603ZM147.085 130.346V131.21H152.344V130.346H147.085ZM136.57 130.346V131.21H141.825V130.346H136.57ZM126.052 130.346V131.21H131.311V130.346H126.052ZM115.533 130.346V131.21H120.793V130.346H115.533ZM225.101 130.346H220.714V131.21H224.794L225.101 130.346Z" fill="#E6E6E6"/>
<path d="M220.714 124.302V125.165H225.973V124.302H220.714ZM210.195 124.302V125.165H215.455V124.302H210.195ZM199.677 124.302V125.165H204.936V124.302H199.677ZM189.159 124.302V125.165H194.418V124.302H189.159ZM178.64 124.302V125.165H183.899V124.302H178.64ZM168.122 124.302V125.165H173.381V124.302H168.122ZM157.603 124.302V125.165H162.862V124.302H157.603ZM147.085 124.302V125.165H152.344V124.302H147.085ZM136.57 124.302V125.165H141.825V124.302H136.57ZM126.052 124.302V125.165H131.311V124.302H126.052ZM115.533 124.302V125.165H120.793V124.302H115.533Z" fill="#E6E6E6"/>
<path d="M220.714 111.78V112.643H225.973V111.78H220.714ZM210.195 111.78V112.643H215.455V111.78H210.195ZM199.677 111.78V112.643H204.936V111.78H199.677ZM189.159 111.78V112.643H194.418V111.78H189.159ZM178.64 111.78V112.643H183.899V111.78H178.64ZM168.122 111.78V112.643H173.381V111.78H168.122ZM157.603 111.78V112.643H162.862V111.78H157.603ZM147.085 111.78V112.643H152.344V111.78H147.085ZM136.57 111.78V112.643H141.825V111.78H136.57ZM126.052 111.78V112.643H131.311V111.78H126.052ZM115.533 111.78V112.643H120.793V111.78H115.533Z" fill="#E6E6E6"/>
<path d="M220.714 103.144V104.007H225.973V103.144H220.714ZM210.195 103.144V104.007H215.455V103.144H210.195ZM199.677 103.144V104.007H204.936V103.144H199.677ZM189.159 103.144V104.007H194.418V103.144H189.159ZM178.64 103.144V104.007H183.899V103.144H178.64ZM168.122 103.144V104.007H173.381V103.144H168.122ZM157.603 103.144V104.007H162.862V103.144H157.603ZM147.085 103.144V104.007H152.344V103.144H147.085ZM136.57 103.144V104.007H141.825V103.144H136.57ZM126.052 103.144V104.007H131.311V103.144H126.052ZM115.533 103.144V104.007H120.793V103.144H115.533Z" fill="#E6E6E6"/>
<path d="M222.104 84.5764H220.714V85.44H222.532C222.393 85.1507 222.251 84.8657 222.104 84.5764ZM210.195 84.5764V85.44H215.455V84.5764H210.195ZM199.677 84.5764V85.44H204.936V84.5764H199.677ZM189.158 84.5764V85.44H194.418V84.5764H189.158ZM178.64 84.5764V85.44H183.899V84.5764H178.64ZM168.121 84.5764V85.44H173.381V84.5764H168.121ZM157.603 84.5764V85.44H162.862V84.5764H157.603ZM147.084 84.5764V85.44H152.344V84.5764H147.084ZM136.57 84.5764V85.44H141.825V84.5764H136.57ZM126.052 84.5764V85.44H131.311V84.5764H126.052ZM117.178 84.5764C117.032 84.8657 116.889 85.1507 116.751 85.44H120.793V84.5764H117.178Z" fill="#E6E6E6"/>
<path d="M201.283 87.4868V160.469C200.545 160.943 199.798 161.397 199.038 161.837V87.4868H201.283Z" fill="#3F3D56"/>
<path d="M170.626 111.667V169.704C170.298 169.709 169.97 169.713 169.641 169.713C169.218 169.713 168.799 169.709 168.381 169.7V111.667H170.626Z" fill="#3F3D56"/>
<path d="M139.969 87.4868V161.678C139.209 161.233 138.46 160.771 137.723 160.291V87.4868H139.969Z" fill="#3F3D56"/>
<path d="M29.9464 186.82L29.0899 174.907C23.4795 172.103 17.2692 170.71 10.9983 170.85C19.8205 177.669 19.1139 191.299 25.2238 200.626C27.1517 203.521 29.7062 205.945 32.6982 207.718C35.6901 209.491 39.0427 210.568 42.5075 210.869L49.8497 215.093C50.6896 209.542 50.316 203.875 48.7548 198.482C47.1935 193.089 44.4817 188.099 40.8061 183.855C38.7205 181.494 36.346 179.406 33.7386 177.639C32.1337 182.247 29.9464 186.82 29.9464 186.82Z" fill="#F2F2F2"/>
<path d="M199.867 93.2856C204.398 93.2856 208.071 89.6125 208.071 85.0815C208.071 80.5505 204.398 76.8774 199.867 76.8774C195.336 76.8774 191.663 80.5505 191.663 85.0815C191.663 89.6125 195.336 93.2856 199.867 93.2856Z" fill="#82DE1B"/>
<path d="M204.078 81.6624C203.955 81.5447 203.791 81.479 203.62 81.479C203.45 81.479 203.286 81.5447 203.162 81.6624C201.422 83.0508 199.858 84.6478 198.507 86.4177C198.175 85.7759 197.843 85.134 197.512 84.4922C197.129 83.7514 196.011 84.4058 196.393 85.146C196.878 86.0848 197.364 87.0236 197.849 87.9623C197.907 88.0582 197.989 88.1374 198.087 88.1923C198.185 88.2473 198.296 88.2761 198.408 88.2761C198.52 88.2761 198.631 88.2473 198.729 88.1923C198.827 88.1374 198.909 88.0582 198.967 87.9623C200.407 85.9345 202.128 84.1217 204.078 82.5784C204.199 82.4564 204.267 82.2919 204.267 82.1204C204.267 81.9489 204.199 81.7844 204.078 81.6624Z" fill="white"/>
<path d="M169.641 117.466C174.172 117.466 177.845 113.793 177.845 109.262C177.845 104.731 174.172 101.058 169.641 101.058C165.11 101.058 161.437 104.731 161.437 109.262C161.437 113.793 165.11 117.466 169.641 117.466Z" fill="#82DE1B"/>
<path d="M173.853 105.843C173.729 105.725 173.565 105.659 173.395 105.659C173.224 105.659 173.06 105.725 172.937 105.843C171.196 107.231 169.632 108.828 168.281 110.598C167.95 109.956 167.618 109.314 167.286 108.673C166.903 107.932 165.785 108.586 166.168 109.326C166.653 110.265 167.138 111.204 167.623 112.143C167.682 112.239 167.764 112.318 167.862 112.373C167.96 112.428 168.07 112.457 168.182 112.457C168.295 112.457 168.405 112.428 168.503 112.373C168.601 112.318 168.683 112.239 168.742 112.143C170.182 110.115 171.902 108.302 173.853 106.759C173.973 106.637 174.041 106.472 174.041 106.301C174.041 106.129 173.973 105.965 173.853 105.843Z" fill="white"/>
<path d="M138.984 95.0126C143.515 95.0126 147.188 91.3395 147.188 86.8086C147.188 82.2776 143.515 78.6045 138.984 78.6045C134.453 78.6045 130.78 82.2776 130.78 86.8086C130.78 91.3395 134.453 95.0126 138.984 95.0126Z" fill="#82DE1B"/>
<path d="M143.196 83.3895C143.072 83.2717 142.908 83.2061 142.738 83.2061C142.567 83.2061 142.403 83.2717 142.28 83.3895C140.539 84.7778 138.975 86.3749 137.624 88.1447C137.292 87.5029 136.961 86.8611 136.629 86.2193C136.246 85.4784 135.128 86.1329 135.51 86.8731C135.996 87.8118 136.481 88.7506 136.966 89.6894C137.024 89.7852 137.107 89.8644 137.205 89.9194C137.303 89.9743 137.413 90.0031 137.525 90.0031C137.638 90.0031 137.748 89.9743 137.846 89.9194C137.944 89.8644 138.026 89.7852 138.085 89.6894C139.524 87.6615 141.245 85.8487 143.196 84.3054C143.316 84.1835 143.384 84.0189 143.384 83.8475C143.384 83.676 143.316 83.5114 143.196 83.3895Z" fill="white"/>
<path d="M256.638 80.9747L262.039 60.8681L247.606 58.136L248.382 71.937L229.419 91.463C228.415 91.422 227.421 91.6739 226.558 92.1882C225.694 92.7024 224.999 93.4566 224.558 94.359C224.116 95.2613 223.946 96.2728 224.069 97.27C224.192 98.2672 224.602 99.2071 225.25 99.9751C225.898 100.743 226.755 101.306 227.718 101.595C228.68 101.884 229.705 101.887 230.669 101.603C231.633 101.32 232.494 100.762 233.146 99.9975C233.798 99.2332 234.214 98.2956 234.343 97.2991L256.638 80.9747Z" fill="#FFB6B6"/>
<path d="M263.516 38.3242C268.415 42.1917 262.127 63.8248 262.127 63.8248C261.153 62.7564 260.022 78.5464 258.832 78.0087C255.45 76.4807 249.252 71.2114 246.862 71.6409C245.495 71.8865 246.927 61.1966 246.927 61.1966C246.927 61.1966 247.19 55.0672 247.685 47.1877C247.784 44.9574 248.445 42.7884 249.608 40.8824C250.77 38.9765 252.396 37.3956 254.334 36.287C254.334 36.287 258.617 34.4567 263.516 38.3242Z" fill="#3F3D56"/>
<path d="M94.3074 83.466L100.245 109.963L62.1963 107.597L72.5429 81.5735L94.3074 83.466Z" fill="#A0616A"/>
<path d="M87.9716 205.762L92.2455 205.762L94.2788 189.276H87.9707L87.9716 205.762Z" fill="#A0616A"/>
<path d="M86.5243 203.653L93.2807 203.25V206.145L99.7042 210.581C100.021 210.8 100.26 211.115 100.386 211.48C100.512 211.844 100.518 212.239 100.403 212.607C100.288 212.975 100.059 213.297 99.7484 213.526C99.4378 213.754 99.0623 213.877 98.6767 213.877H90.633L89.2465 211.014L88.7052 213.877H85.6724L86.5243 203.653Z" fill="#2F2E41"/>
<path d="M47.5757 203.635L51.7529 204.541L57.2349 188.862L51.0702 187.524L47.5757 203.635Z" fill="#A0616A"/>
<path d="M46.6085 201.268L53.2968 202.306L52.6831 205.135L58.02 210.833C58.2837 211.114 58.4505 211.472 58.4961 211.855C58.5417 212.238 58.4637 212.625 58.2735 212.961C58.0833 213.296 57.7909 213.562 57.439 213.719C57.087 213.877 56.6939 213.918 56.3172 213.836L48.4563 212.131L47.7084 209.038L46.5723 211.722L43.6084 211.079L46.6085 201.268Z" fill="#2F2E41"/>
<path d="M101.217 132.121C98.2172 148.606 97.4674 155.724 97.4674 155.724C97.4674 155.724 99.717 158.346 98.2172 159.846C96.7174 161.346 98.2172 164.341 98.2172 164.341L94.8448 200.684L92.1301 200.244L85.5905 199.193L83.2319 198.811L84.7317 164.718C84.7317 164.718 83.232 161.719 83.9819 160.969C84.7317 160.219 83.2319 155.724 83.2319 155.724L81.3593 120.131L69.7423 159.096C69.7423 159.096 70.8692 160.596 69.7423 161.719C68.6195 162.842 66.374 168.464 66.374 168.464L59.4658 192.636L58.8793 194.689L55.2765 194.015L51.3553 193.277L50.6347 193.143L49.3527 192.9L48.5275 192.745L48.2467 192.695L46.8894 192.439L47.3 190.617L47.5136 189.658L53.3578 163.7L53.4918 163.101L53.6343 162.469C53.6343 162.469 52.8844 160.596 54.0071 159.469C54.3356 159.126 54.5755 158.708 54.7061 158.251C54.8368 157.794 54.8543 157.312 54.757 156.847C54.7203 156.808 54.6866 156.766 54.6565 156.721C54.5239 156.539 54.4324 156.33 54.3883 156.109C54.2878 155.64 54.3758 154.982 55.1341 154.224C55.3476 153.997 55.5268 153.74 55.6661 153.462C56.8056 151.304 57.3796 146.734 57.3796 146.734C57.3796 146.734 58.3934 110.534 61.7113 105.004C61.8873 104.715 65.4096 99.1651 65.5939 99.052C69.3392 96.8065 98.5183 99.908 98.5183 99.908C98.5183 99.908 100.286 104.656 100.365 105.15C100.797 107.928 103.76 118.137 101.217 132.121Z" fill="#2F2E41"/>
<path d="M92.3505 44.9249C92.3505 44.9249 92.9819 41.6475 86.9149 35.5806C83.703 34.5099 78.1379 35.1339 76.2085 35.5806C67.2866 47.3576 68.884 45.2796 66.5616 51.8598C65.9594 53.5661 65.6583 55.2055 65.9259 56.5438C66.9966 61.897 68.7347 89.3762 68.3778 90.8037C68.021 92.2312 65.5228 94.0156 68.021 94.0156C70.5191 94.0156 102.735 93.4517 102.021 92.3811C101.307 91.3104 92.3505 44.9249 92.3505 44.9249Z" fill="#82DE1B"/>
<path d="M130.612 88.4692C130.122 88.6587 129.597 88.7386 129.074 88.7032C128.551 88.6679 128.041 88.5182 127.582 88.2647C127.122 88.0113 126.724 87.6602 126.415 87.2361C126.106 86.8121 125.894 86.3255 125.794 85.8106L113.167 84.0172L117.557 79.0527L128.875 81.517C129.751 81.4053 130.637 81.619 131.367 82.1175C132.096 82.6159 132.617 83.3646 132.831 84.2216C133.045 85.0785 132.937 85.9843 132.528 86.7672C132.119 87.55 131.437 88.1557 130.612 88.4693L130.612 88.4692Z" fill="#A0616A"/>
<path d="M77.1929 42.8153C78.2109 42.1356 79.3673 41.8164 80.298 40.9089C83.6966 43.3562 83.9467 39.3715 87.0267 45.366C90.1068 51.3604 101.093 65.8131 105.724 70.1588C110.355 74.5044 118.835 76.7023 121.294 78.2313C122.731 79.0937 124.237 79.8339 125.797 80.444C124.811 82.3644 124.265 84.4688 123.032 86.3041C116.068 85.4508 106.937 82.6641 101.803 81.3018C96.6677 79.9395 98.6208 80.9547 96.509 79.3574C94.3972 77.76 96.143 78.4961 93.6851 77.8478C91.2272 77.1994 89.3531 73.9441 88.6123 71.4292C86.8477 69.6259 85.3351 67.6775 83.5891 65.8927C81.5716 58.1752 79.3272 50.4939 77.1929 42.8153Z" fill="#82DE1B"/>
<path d="M85.1656 31.013C90.8729 31.013 95.4995 26.3863 95.4995 20.679C95.4995 14.9717 90.8729 10.345 85.1656 10.345C79.4582 10.345 74.8315 14.9717 74.8315 20.679C74.8315 26.3863 79.4582 31.013 85.1656 31.013Z" fill="#A0616A"/>
<path d="M92.0699 39.5689C91.5801 38.8694 87.9179 31.9333 86.8293 29.3104C86.7174 29.8784 86.6467 30.4537 86.6179 31.0319L86.6071 31.2474L86.3931 31.2751C86.0713 31.3162 78.4708 32.2387 74.5153 27.7536C72.1718 25.0968 71.6404 21.1119 72.9336 15.907C72.6984 15.8608 72.473 15.774 72.2676 15.6505C71.9255 15.4138 71.6392 15.1053 71.4287 14.7465C71.2181 14.3878 71.0884 13.9874 71.0484 13.5733L70.8295 13.6321C63.7924 10.2078 69.855 0.190697 76.2825 5.171C76.8463 5.04502 77.434 5.0788 77.9797 5.26852C78.5059 5.48262 78.9644 5.83511 79.3066 6.28863C79.6488 6.74215 79.8618 7.2798 79.9233 7.8446C83.2442 6.0978 87.6395 6.38205 89.9127 7.69265C90.8644 8.24149 91.411 8.93269 91.508 9.70378C94.193 9.85371 97.0808 12.4691 97.0808 16.1746V16.4327H96.8227C95.7425 16.4557 94.6889 16.772 93.7747 17.3479C92.8606 17.9237 92.1202 18.7374 91.633 19.7017C90.9727 20.8946 90.6459 22.2434 90.687 23.6062C90.7281 24.969 91.1354 26.2957 91.8663 27.4466C92.6619 28.6675 93.205 30.0352 93.4638 31.4692C93.7226 32.9031 93.6918 34.3744 93.3732 35.7963L92.4036 40.0451L92.0699 39.5689Z" fill="#2F2E41"/>
<path d="M122.055 213.963C122.055 214.03 122.042 214.097 122.016 214.16C121.991 214.222 121.953 214.279 121.905 214.327C121.857 214.374 121.8 214.412 121.738 214.438C121.676 214.464 121.609 214.477 121.541 214.477H0.513835C0.377558 214.477 0.24686 214.422 0.150498 214.326C0.0541352 214.23 0 214.099 0 213.963C0 213.827 0.0541352 213.696 0.150498 213.599C0.24686 213.503 0.377558 213.449 0.513835 213.449H121.541C121.609 213.449 121.676 213.462 121.738 213.488C121.8 213.513 121.857 213.551 121.905 213.599C121.953 213.647 121.991 213.704 122.016 213.766C122.042 213.828 122.055 213.895 122.055 213.963Z" fill="#CCCCCC"/>
<path d="M287 213.963C287 214.03 286.987 214.097 286.961 214.16C286.936 214.222 286.898 214.279 286.85 214.327C286.802 214.374 286.746 214.412 286.683 214.438C286.621 214.464 286.554 214.477 286.486 214.477H165.459C165.323 214.477 165.192 214.422 165.096 214.326C164.999 214.23 164.945 214.099 164.945 213.963C164.945 213.827 164.999 213.696 165.096 213.599C165.192 213.503 165.323 213.449 165.459 213.449H286.486C286.554 213.449 286.621 213.462 286.683 213.488C286.746 213.513 286.802 213.551 286.85 213.599C286.898 213.647 286.936 213.704 286.961 213.766C286.987 213.828 287 213.895 287 213.963Z" fill="#CCCCCC"/>
<path d="M138.729 176.931C141.254 176.931 143.302 174.884 143.302 172.358C143.302 169.833 141.254 167.785 138.729 167.785C136.203 167.785 134.156 169.833 134.156 172.358C134.156 174.884 136.203 176.931 138.729 176.931Z" fill="#E6E6E6"/>
<path d="M169.386 181.681C171.912 181.681 173.959 179.634 173.959 177.108C173.959 174.583 171.912 172.535 169.386 172.535C166.861 172.535 164.813 174.583 164.813 177.108C164.813 179.634 166.861 181.681 169.386 181.681Z" fill="#E6E6E6"/>
<path d="M200.044 176.068C202.569 176.068 204.617 174.02 204.617 171.495C204.617 168.969 202.569 166.922 200.044 166.922C197.518 166.922 195.471 168.969 195.471 171.495C195.471 174.02 197.518 176.068 200.044 176.068Z" fill="#E6E6E6"/>
</g>
<defs>
<clipPath id="clip0_32_2041">
<rect width="287" height="215.442" fill="white"/>
</clipPath>
</defs>
</svg>
