<svg width="323" height="214" viewBox="0 0 323 214" fill="none" xmlns="http://www.w3.org/2000/svg">
<g clip-path="url(#clip0_32_2000)">
<path d="M310.374 143.157C308.042 145.705 305.15 147.602 302.011 149.075H302.007C301.712 149.215 301.416 149.351 301.117 149.48H301.114L301.11 149.484L301.106 149.48H301.102C301.102 149.48 301.102 149.481 301.102 149.481C301.102 149.482 301.102 149.482 301.101 149.482C301.101 149.483 301.1 149.483 301.1 149.483C301.099 149.483 301.099 149.484 301.098 149.484H301.094L301.091 149.48C301.087 149.484 301.087 149.484 301.083 149.48L301.08 149.484L301.076 149.48H301.072C301.068 149.484 301.068 149.484 301.064 149.48H301.06C298.96 150.388 296.802 151.16 294.601 151.789C281.66 155.461 268.059 156.171 254.806 153.868C254.552 153.822 254.302 153.777 254.048 153.732V123.022C254.298 122.916 254.552 122.81 254.806 122.708C256.46 122.023 258.135 121.393 259.83 120.819C262.268 119.986 264.74 119.272 267.247 118.676C275.424 116.697 283.861 116.014 292.25 116.654C293.776 116.768 295.298 116.932 296.816 117.146C299.993 117.589 303.325 118.362 306.255 119.702H306.259C306.687 119.903 307.107 120.111 307.523 120.334C310.128 121.746 312.324 123.689 313.664 126.35C314.146 127.306 314.493 128.324 314.694 129.375V129.383C314.77 129.747 314.823 130.114 314.865 130.477C315.342 134.96 313.483 139.757 310.374 143.157Z" fill="#F2F2F2"/>
<path d="M314.865 130.477C314.827 130.486 314.789 130.491 314.751 130.492C308.266 130.776 301.789 131.198 295.321 131.757H295.309C295.283 131.76 295.26 131.76 295.234 131.764C288.593 132.34 281.966 133.06 275.353 133.926C275.073 133.964 274.796 134.002 274.52 134.036C269.946 134.645 265.382 135.322 260.825 136.065C258.815 136.395 256.808 136.738 254.806 137.095C254.552 137.14 254.302 137.182 254.048 137.231V136.084C254.302 136.035 254.556 135.993 254.806 135.948C261.477 134.767 268.171 133.735 274.887 132.855C276.576 132.627 278.267 132.413 279.96 132.211C284.852 131.62 289.751 131.11 294.658 130.681C295.018 130.651 295.374 130.621 295.733 130.59C302.015 130.057 308.305 129.652 314.603 129.375C314.634 129.374 314.664 129.376 314.694 129.383C315.3 129.436 315.429 130.344 314.865 130.477Z" fill="white"/>
<path d="M301.396 148.364C293.316 148.423 285.357 144.998 279.642 139.327C278.029 137.721 276.608 135.933 275.407 134C275.022 133.382 274.121 134.063 274.503 134.676C278.941 141.794 286.334 146.864 294.485 148.729C296.8 149.253 299.168 149.507 301.541 149.484C302.266 149.478 302.116 148.359 301.396 148.364V148.364Z" fill="white"/>
<path d="M267.247 118.676C267.212 118.782 267.15 118.878 267.067 118.953C266.984 119.028 266.883 119.08 266.773 119.104C264.922 119.589 263.133 120.288 261.443 121.186C258.974 122.49 256.733 124.184 254.806 126.203C254.703 126.305 254.605 126.407 254.51 126.513C254.351 126.68 254.2 126.85 254.048 127.024V125.373C254.291 125.116 254.544 124.862 254.806 124.62C256.328 123.163 258.014 121.887 259.83 120.819C262.268 119.986 264.74 119.271 267.247 118.676Z" fill="white"/>
<path d="M306.925 119.403C301.785 121.612 297.485 125.404 294.65 130.226C294.592 130.364 294.591 130.519 294.648 130.658C294.704 130.796 294.812 130.907 294.95 130.966C295.088 131.02 295.242 131.02 295.38 130.964C295.517 130.908 295.628 130.801 295.689 130.666C298.396 126.111 302.478 122.534 307.349 120.449C308.018 120.164 307.594 119.117 306.925 119.403L306.925 119.403Z" fill="white"/>
<path d="M322.418 87.2471C321.54 90.5864 319.855 93.6115 317.761 96.3716L317.757 96.3754C317.564 96.6328 317.364 96.8941 317.155 97.144V97.1477C315.702 98.9386 314.132 100.632 312.457 102.217C306.434 107.957 299.632 112.817 292.25 116.654C280.638 122.719 267.659 126.305 254.806 126.509C254.707 126.513 254.609 126.513 254.51 126.513C254.355 126.517 254.2 126.517 254.048 126.517V109.309C254.294 108.839 254.548 108.37 254.806 107.904C258.146 101.893 262.219 96.3206 266.933 91.3133C267.046 91.1884 267.163 91.0635 267.281 90.9423C269.053 89.072 270.91 87.2912 272.854 85.6001C280.331 79.026 288.972 73.9087 298.331 70.5124C301.348 69.4296 304.657 68.5626 307.875 68.3922C308.349 68.3657 308.818 68.3543 309.292 68.3581C312.256 68.3998 315.099 69.1002 317.526 70.8343C318.395 71.4584 319.175 72.1985 319.844 73.034C320.078 73.3255 320.294 73.6246 320.502 73.9313V73.9351C323.009 77.6833 323.592 82.7908 322.418 87.2471Z" fill="#F2F2F2"/>
<path d="M320.502 73.9313V73.9351C320.474 73.9595 320.444 73.9811 320.411 73.9995C314.808 77.2593 309.275 80.6378 303.813 84.1349C303.805 84.1387 303.802 84.1425 303.794 84.1462C303.772 84.1615 303.749 84.1754 303.726 84.1879C298.111 87.7847 292.576 91.5027 287.12 95.3418C286.893 95.5008 286.662 95.6636 286.431 95.8264C282.664 98.488 278.936 101.206 275.247 103.982C268.28 109.229 261.467 114.671 254.806 120.307C254.552 120.519 254.302 120.735 254.048 120.951V119.478C254.298 119.262 254.552 119.047 254.806 118.835C257.357 116.68 259.932 114.556 262.529 112.463C263.305 111.838 264.085 111.213 264.865 110.596C271.794 105.08 278.878 99.769 286.117 94.6641H286.121C287.544 93.6607 288.97 92.6663 290.399 91.6806C294.458 88.8865 298.562 86.1592 302.711 83.4988C303.01 83.3057 303.313 83.1126 303.616 82.9195C308.928 79.5272 314.309 76.2459 319.76 73.0757C319.787 73.0595 319.815 73.0456 319.844 73.034C320.411 72.8068 320.945 73.5565 320.502 73.9313Z" fill="white"/>
<path d="M316.886 96.0284C309.758 99.8341 301.118 100.498 293.423 98.1307C291.249 97.4574 289.16 96.5344 287.198 95.3803C286.57 95.0121 286.089 96.034 286.712 96.399C293.948 100.641 302.851 101.697 310.935 99.5616C313.229 98.9508 315.443 98.0753 317.534 96.9526C318.173 96.6113 317.52 95.6894 316.886 96.0284V96.0284Z" fill="white"/>
<path d="M263.559 109.881C263.207 107.899 263.086 105.883 263.199 103.873C263.454 99.289 264.857 94.8427 267.28 90.9432C269.054 89.0734 270.913 87.2924 272.855 85.6001C272.873 85.7108 272.862 85.8243 272.824 85.9295C272.785 86.0348 272.719 86.128 272.633 86.2001C271.219 87.4901 269.96 88.9394 268.88 90.5192C265.023 96.1492 263.517 103.063 264.684 109.788C264.703 109.864 264.702 109.944 264.682 110.019C264.661 110.095 264.621 110.164 264.566 110.22C264.485 110.291 264.387 110.339 264.281 110.36C264.176 110.381 264.067 110.374 263.965 110.339C263.864 110.305 263.773 110.245 263.701 110.164C263.63 110.084 263.581 109.986 263.559 109.881Z" fill="white"/>
<path d="M308.329 67.814C304.804 72.1576 302.757 77.5129 302.486 83.1004C302.499 83.2493 302.571 83.3869 302.685 83.4835C302.799 83.58 302.946 83.6277 303.095 83.6161C303.243 83.6003 303.379 83.5281 303.475 83.4147C303.571 83.3012 303.62 83.1551 303.611 83.0067C303.892 77.7163 305.846 72.6517 309.191 68.5433C309.65 67.98 308.789 67.2496 308.329 67.814Z" fill="white"/>
<path d="M269.121 80.2543V80.2581C269.094 80.5837 269.064 80.9055 269.03 81.2273V81.2349C268.767 83.5257 268.356 85.797 267.799 88.0348C267.535 89.1327 267.247 90.2231 266.933 91.3135C266.895 91.4536 266.853 91.5937 266.811 91.73V91.7338C265.887 94.9051 264.782 98.0211 263.502 101.067C261.148 106.674 258.234 112.029 254.806 117.052C254.559 117.419 254.306 117.786 254.048 118.15V58.859C254.302 58.8438 254.552 58.8438 254.806 58.8514C254.927 58.8514 255.048 58.8552 255.169 58.8628C256.237 58.9189 257.293 59.1241 258.304 59.4724C258.66 59.5897 259.004 59.7222 259.345 59.8699C263.476 61.6797 266.721 65.6702 268.129 70.0583C269.185 73.3447 269.397 76.8014 269.121 80.2543Z" fill="#F2F2F2"/>
<path d="M259.345 59.8699C259.336 59.907 259.322 59.9427 259.303 59.9759C257.77 62.9556 256.271 65.9504 254.806 68.9603C254.552 69.479 254.298 70.0015 254.048 70.5202V67.9456C254.298 67.4307 254.551 66.9158 254.806 66.4009C255.938 64.1065 257.089 61.8222 258.259 59.548C258.271 59.5215 258.287 59.4961 258.304 59.4723C258.652 58.9725 259.515 59.3133 259.345 59.8699Z" fill="white"/>
<path d="M269.242 80.8638C269.174 80.985 269.106 81.1061 269.03 81.2273C267.918 83.1647 266.595 84.9729 265.085 86.6187C262.184 89.7657 258.691 92.3093 254.806 94.1038C254.556 94.225 254.302 94.3386 254.048 94.4446V93.2141C254.302 93.1005 254.556 92.9831 254.806 92.862C260.43 90.1793 265.102 85.8443 268.197 80.436C268.242 80.3588 268.302 80.292 268.375 80.2403C268.448 80.1886 268.531 80.1531 268.618 80.1362C268.706 80.1194 268.796 80.1215 268.883 80.1425C268.97 80.1635 269.051 80.2029 269.121 80.258C269.169 80.2898 269.21 80.3307 269.242 80.3784C269.274 80.426 269.296 80.4795 269.307 80.5358C269.318 80.5921 269.318 80.65 269.307 80.7063C269.296 80.7626 269.274 80.8161 269.242 80.8638Z" fill="white"/>
<path d="M254.805 12.4942V41.2686H254.048V40.962H0.757223V41.2686H0V12.4942C0.00325166 9.18151 1.32064 6.00546 3.66305 3.66305C6.00546 1.32064 9.18151 0.00325166 12.4942 0H242.311C245.624 0.00325166 248.8 1.32064 251.142 3.66305C253.485 6.00546 254.802 9.18151 254.805 12.4942Z" fill="#82DE1B"/>
<path d="M242.311 0H12.4942C9.18151 0.00325166 6.00546 1.32064 3.66305 3.66305C1.32064 6.00546 0.00325166 9.18151 0 12.4942V176.812C0.00325166 180.124 1.32064 183.3 3.66305 185.643C6.00546 187.985 9.18151 189.302 12.4942 189.306H242.311C245.624 189.302 248.8 187.985 251.142 185.643C253.485 183.3 254.802 180.124 254.805 176.812V12.4942C254.802 9.18151 253.485 6.00546 251.142 3.66305C248.8 1.32064 245.624 0.00325166 242.311 0ZM254.048 176.812C254.044 179.923 252.806 182.906 250.606 185.106C248.406 187.307 245.423 188.545 242.311 188.548H12.4942C9.38256 188.545 6.39952 187.307 4.19928 185.106C1.99903 182.906 0.761193 179.923 0.757223 176.812V12.4942C0.761193 9.38256 1.99903 6.39953 4.19928 4.19928C6.39952 1.99904 9.38256 0.761193 12.4942 0.757223H242.311C245.423 0.761194 248.406 1.99904 250.606 4.19928C252.806 6.39953 254.044 9.38256 254.048 12.4942V176.812Z" fill="#3F3D56"/>
<path d="M51.4912 28.2067C55.6732 28.2067 59.0634 24.8165 59.0634 20.6345C59.0634 16.4525 55.6732 13.0623 51.4912 13.0623C47.3091 13.0623 43.9189 16.4525 43.9189 20.6345C43.9189 24.8165 47.3091 28.2067 51.4912 28.2067Z" fill="white"/>
<path d="M203.314 28.2067C207.496 28.2067 210.887 24.8165 210.887 20.6345C210.887 16.4525 207.496 13.0623 203.314 13.0623C199.132 13.0623 195.742 16.4525 195.742 20.6345C195.742 24.8165 199.132 28.2067 203.314 28.2067Z" fill="white"/>
<path d="M73.3692 105.065H28.3234C26.4151 105.063 24.5855 104.304 23.2361 102.955C21.8867 101.605 21.1276 99.7758 21.1255 97.8674V76.5771C21.1276 74.6687 21.8867 72.8392 23.2361 71.4898C24.5855 70.1404 26.4151 69.3813 28.3234 69.3792H73.3692C75.2776 69.3813 77.1071 70.1404 78.4565 71.4898C79.8059 72.8392 80.565 74.6687 80.5672 76.5771V97.8674C80.565 99.7758 79.8059 101.605 78.4565 102.955C77.1071 104.304 75.2776 105.063 73.3692 105.065Z" fill="#82DE1B"/>
<path d="M149.999 105.065H104.954C103.045 105.063 101.216 104.304 99.8662 102.955C98.5168 101.605 97.7578 99.7758 97.7556 97.8674V76.5771C97.7578 74.6687 98.5168 72.8392 99.8662 71.4898C101.216 70.1404 103.045 69.3813 104.954 69.3792H149.999C151.908 69.3813 153.737 70.1404 155.087 71.4898C156.436 72.8392 157.195 74.6687 157.197 76.5771V97.8674C157.195 99.7758 156.436 101.605 155.087 102.955C153.737 104.304 151.908 105.063 149.999 105.065Z" fill="#82DE1B"/>
<path d="M149.999 160.074H104.954C102.987 160.072 101.102 159.29 99.7122 157.9C98.3218 156.509 97.5398 154.624 97.5376 152.658V131.368C97.5398 129.402 98.3218 127.517 99.7122 126.126C101.102 124.736 102.987 123.954 104.954 123.952H149.999C151.966 123.954 153.851 124.736 155.241 126.126C156.631 127.517 157.413 129.402 157.415 131.368V152.658C157.413 154.624 156.631 156.509 155.241 157.9C153.851 159.29 151.966 160.072 149.999 160.074Z" fill="#F2F2F2"/>
<path d="M73.2213 160.074H28.1756C26.2094 160.072 24.3244 159.29 22.9341 157.9C21.5438 156.509 20.7617 154.624 20.7595 152.658V131.368C20.7617 129.402 21.5438 127.517 22.9341 126.126C24.3244 124.736 26.2094 123.954 28.1756 123.952H73.2213C75.1875 123.954 77.0725 124.736 78.4628 126.126C79.8531 127.517 80.6352 129.402 80.6374 131.368V152.658C80.6352 154.624 79.8531 156.509 78.4628 157.9C77.0725 159.29 75.1875 160.072 73.2213 160.074Z" fill="#F2F2F2"/>
<path d="M226.63 160.074H181.584C179.618 160.072 177.733 159.29 176.343 157.9C174.952 156.509 174.17 154.624 174.168 152.658V131.368C174.17 129.402 174.952 127.517 176.343 126.126C177.733 124.736 179.618 123.954 181.584 123.952H226.63C228.596 123.954 230.481 124.736 231.871 126.126C233.262 127.517 234.044 129.402 234.046 131.368V152.658C234.044 154.624 233.262 156.509 231.871 157.9C230.481 159.29 228.596 160.072 226.63 160.074Z" fill="#F2F2F2"/>
<path d="M226.63 105.108H181.584C179.618 105.106 177.733 104.324 176.343 102.934C174.952 101.543 174.17 99.6584 174.168 97.6922V76.4017C174.17 74.4355 174.952 72.5505 176.343 71.1602C177.733 69.7699 179.618 68.9878 181.584 68.9856H226.63C228.596 68.9878 230.481 69.7699 231.871 71.1602C233.262 72.5505 234.044 74.4355 234.046 76.4017V97.6922C234.044 99.6584 233.262 101.543 231.871 102.934C230.481 104.324 228.596 105.106 226.63 105.108Z" fill="#F2F2F2"/>
<path d="M50.8463 99.4372C57.5923 99.4372 63.061 93.9685 63.061 87.2225C63.061 80.4765 57.5923 75.0078 50.8463 75.0078C44.1003 75.0078 38.6316 80.4765 38.6316 87.2225C38.6316 93.9685 44.1003 99.4372 50.8463 99.4372Z" fill="white"/>
<path d="M49.6353 91.8818C49.3605 91.8823 49.093 91.7934 48.8731 91.6285L48.8595 91.6183L45.9889 89.4205C45.8558 89.3188 45.7441 89.1917 45.6601 89.0467C45.5761 88.9017 45.5215 88.7416 45.4994 88.5754C45.4773 88.4093 45.4882 88.2405 45.5314 88.0785C45.5746 87.9166 45.6493 87.7648 45.7513 87.6318C45.8532 87.4988 45.9803 87.3871 46.1254 87.3033C46.2705 87.2194 46.4307 87.165 46.5969 87.1431C46.763 87.1212 46.9318 87.1322 47.0937 87.1756C47.2556 87.219 47.4073 87.2938 47.5402 87.3959L49.3996 88.8216L53.7934 83.0914C53.8953 82.9585 54.0224 82.8469 54.1674 82.7631C54.3124 82.6793 54.4725 82.6249 54.6386 82.603C54.8046 82.5811 54.9733 82.5921 55.1351 82.6354C55.2969 82.6787 55.4486 82.7534 55.5815 82.8553L55.5542 82.8924L55.5822 82.8559C55.8503 83.0619 56.0257 83.3659 56.0699 83.7011C56.1142 84.0363 56.0236 84.3754 55.8182 84.6439L50.65 91.3841C50.5304 91.5394 50.3767 91.6651 50.2008 91.7514C50.0248 91.8377 49.8313 91.8823 49.6353 91.8818Z" fill="#82DE1B"/>
<path d="M127.695 99.2614C134.441 99.2614 139.91 93.7927 139.91 87.0467C139.91 80.3007 134.441 74.832 127.695 74.832C120.949 74.832 115.48 80.3007 115.48 87.0467C115.48 93.7927 120.949 99.2614 127.695 99.2614Z" fill="white"/>
<path d="M126.484 91.7064C126.209 91.707 125.942 91.6181 125.722 91.4533L125.708 91.443L122.838 89.2453C122.569 89.0395 122.394 88.7356 122.349 88.4003C122.305 88.065 122.395 87.7258 122.601 87.4573C122.807 87.1888 123.111 87.013 123.446 86.9686C123.781 86.9243 124.121 87.0149 124.389 87.2206L126.248 88.6463L130.642 82.9161C130.744 82.7832 130.871 82.6716 131.016 82.5878C131.161 82.504 131.321 82.4496 131.487 82.4277C131.653 82.4058 131.822 82.4168 131.984 82.4601C132.146 82.5034 132.297 82.5781 132.43 82.68L132.403 82.7171L132.431 82.6806C132.699 82.8866 132.875 83.1906 132.919 83.5258C132.963 83.861 132.873 84.2001 132.667 84.4686L127.499 91.2088C127.379 91.3641 127.226 91.4898 127.05 91.5761C126.874 91.6624 126.68 91.707 126.484 91.7064Z" fill="#82DE1B"/>
<path d="M210.248 144.686C210.649 144.248 210.949 143.726 211.127 143.159C211.305 142.591 211.356 141.992 211.278 141.403C211.199 140.813 210.992 140.248 210.671 139.748C210.35 139.247 209.924 138.823 209.421 138.505L202.602 102.093L194.309 105.168L203.619 139.993C203.141 140.872 203.002 141.897 203.229 142.872C203.455 143.847 204.032 144.705 204.849 145.284C205.666 145.862 206.667 146.121 207.662 146.011C208.657 145.901 209.577 145.429 210.248 144.686Z" fill="#A0616A"/>
<path d="M144.072 89.1252C144.093 89.3513 144.096 89.5787 144.08 89.8052L160.205 102.216L164.778 100.338L168.514 106.869L160.742 110.98C160.114 111.312 159.395 111.431 158.694 111.32C157.992 111.209 157.346 110.873 156.851 110.364L140.733 93.7466C139.88 93.9391 138.989 93.8672 138.177 93.5405C137.366 93.2139 136.673 92.648 136.191 91.9181C135.709 91.1882 135.461 90.3289 135.48 89.4544C135.498 88.58 135.782 87.7319 136.295 87.023C136.807 86.314 137.523 85.7778 138.347 85.4857C139.171 85.1935 140.065 85.1593 140.91 85.3875C141.754 85.6157 142.509 86.0956 143.074 86.7632C143.639 87.4309 143.987 88.2547 144.072 89.1252H144.072Z" fill="#A0616A"/>
<path d="M181.744 209.315H177.102L174.894 195.197L181.745 195.198L181.744 209.315Z" fill="#A0616A"/>
<path d="M182.928 213.815L167.961 213.814V213.625C167.961 212.86 168.112 212.102 168.405 211.395C168.698 210.689 169.127 210.046 169.668 209.505C170.209 208.965 170.851 208.535 171.558 208.243C172.264 207.95 173.022 207.799 173.787 207.799H173.787L182.928 207.8L182.928 213.815Z" fill="#2F2E41"/>
<path d="M199.16 209.315H194.519L192.31 195.197L199.161 195.198L199.16 209.315Z" fill="#A0616A"/>
<path d="M200.344 213.815L185.378 213.814V213.625C185.378 212.86 185.528 212.102 185.821 211.395C186.114 210.689 186.543 210.046 187.084 209.505C187.625 208.965 188.267 208.535 188.974 208.243C189.681 207.95 190.438 207.799 191.203 207.799H191.204L200.345 207.8L200.344 213.815Z" fill="#2F2E41"/>
<path d="M176.139 206.525C175.715 206.525 175.306 206.367 174.993 206.082C174.68 205.797 174.484 205.405 174.445 204.983L170.4 150.58L170.591 150.565L198.427 148.277L198.434 148.475L200.647 204.831C200.656 205.06 200.618 205.288 200.536 205.503C200.454 205.717 200.33 205.912 200.171 206.077C200.012 206.242 199.822 206.373 199.611 206.463C199.4 206.552 199.173 206.599 198.944 206.599H193.486C193.079 206.6 192.684 206.456 192.375 206.19C192.066 205.925 191.863 205.557 191.803 205.154L184.391 159.628C184.384 159.581 184.359 159.538 184.322 159.509C184.284 159.479 184.237 159.464 184.19 159.468C184.143 159.471 184.098 159.492 184.066 159.527C184.033 159.562 184.015 159.608 184.014 159.655L183.678 204.605C183.675 205.039 183.506 205.456 183.206 205.77C182.906 206.084 182.498 206.271 182.064 206.295L176.23 206.522C176.2 206.524 176.169 206.525 176.139 206.525Z" fill="#2F2E41"/>
<path d="M180.89 81.8274C186.026 81.8274 190.189 77.6641 190.189 72.5283C190.189 67.3926 186.026 63.2292 180.89 63.2292C175.754 63.2292 171.591 67.3926 171.591 72.5283C171.591 77.6641 175.754 81.8274 180.89 81.8274Z" fill="#A0616A"/>
<path d="M182.69 154.05C178.625 154.038 174.581 153.485 170.662 152.406C170.285 152.296 169.957 152.06 169.734 151.737C169.511 151.414 169.406 151.023 169.437 150.632C170.689 131.817 170.983 117.217 168.351 107.115C167.229 102.809 167.738 98.2743 169.748 94.6734C172.773 89.2544 178.333 85.9561 184.264 86.07C184.547 86.0754 184.834 86.0855 185.123 86.1003C194.123 86.5638 201.137 94.7063 200.757 104.252L198.947 149.749C198.94 150.081 198.835 150.403 198.646 150.676C198.456 150.948 198.19 151.158 197.881 151.28C193.024 153.107 187.879 154.045 182.69 154.05Z" fill="#3F3D56"/>
<path d="M169.881 110.608L162.915 102.072C162.717 101.829 162.574 101.547 162.495 101.243C162.416 100.94 162.403 100.623 162.457 100.314C162.512 100.006 162.632 99.7124 162.81 99.4544C162.988 99.1964 163.219 98.9797 163.489 98.8193L172.924 93.1969C174.173 92.1897 175.769 91.7186 177.364 91.887C178.959 92.0554 180.423 92.8495 181.433 94.0951C182.444 95.3408 182.919 96.9363 182.755 98.5318C182.59 100.127 181.8 101.593 180.557 102.606L173.183 110.698C172.972 110.93 172.713 111.113 172.424 111.236C172.136 111.359 171.824 111.418 171.511 111.409C171.198 111.401 170.89 111.325 170.609 111.186C170.327 111.048 170.079 110.851 169.881 110.608Z" fill="#3F3D56"/>
<path d="M191.793 109.537C191.507 109.409 191.252 109.221 191.045 108.985C190.839 108.749 190.685 108.472 190.595 108.172L187.46 97.682C186.779 96.2295 186.702 94.5664 187.246 93.0573C187.79 91.5482 188.91 90.3164 190.361 89.6321C191.812 88.9478 193.475 88.8669 194.985 89.407C196.496 89.9471 197.73 91.0643 198.418 92.5134L204.482 101.671C204.655 101.933 204.77 102.228 204.818 102.538C204.867 102.848 204.848 103.164 204.763 103.466C204.678 103.768 204.529 104.048 204.327 104.287C204.124 104.526 203.872 104.718 203.588 104.851L193.61 109.522C193.326 109.655 193.017 109.725 192.703 109.728C192.39 109.73 192.079 109.665 191.793 109.537Z" fill="#3F3D56"/>
<path d="M185.485 80.1588L178.592 78.5811C177.881 78.4184 177.027 78.1079 176.928 77.3852C176.796 76.414 178.193 75.7374 178.065 74.7657C177.94 73.8246 176.667 73.7033 175.759 73.4255C174.913 73.1289 174.216 72.515 173.815 71.7136C173.415 70.9123 173.341 69.9864 173.611 69.1319C172.629 70.5161 170.385 70.6347 169.111 69.5133C167.837 68.3918 167.592 66.3571 168.357 64.842C168.771 64.0978 169.354 63.4617 170.059 62.9854C170.765 62.509 171.573 62.2059 172.418 62.1007C174.116 61.9081 175.833 62.2282 177.348 63.0199C177.449 61.9472 178.789 61.5123 179.866 61.5027C182.104 61.5288 184.279 62.2519 186.087 63.5716C187.895 64.8912 189.246 66.7416 189.953 68.8653C191.276 73.1255 190.391 77.7953 186.692 80.288L185.485 80.1588Z" fill="#2F2E41"/>
<path d="M254.914 213.916H110.664C110.563 213.916 110.467 213.876 110.396 213.805C110.325 213.734 110.285 213.637 110.285 213.537C110.285 213.437 110.325 213.34 110.396 213.269C110.467 213.198 110.563 213.158 110.664 213.158H254.914C255.015 213.158 255.111 213.198 255.182 213.269C255.253 213.34 255.293 213.437 255.293 213.537C255.293 213.637 255.253 213.734 255.182 213.805C255.111 213.876 255.015 213.916 254.914 213.916Z" fill="#3F3D56"/>
</g>
<defs>
<clipPath id="clip0_32_2000">
<rect width="323" height="213.915" fill="white"/>
</clipPath>
</defs>
</svg>
