<svg width="332" height="218" viewBox="0 0 332 218" fill="none" xmlns="http://www.w3.org/2000/svg">
<g clip-path="url(#clip0_32_1901)">
<path opacity="0.1" d="M6.4284 69.3425C3.92864 76.9101 11.2782 83.7161 17.0589 89.1974C24.9714 96.7169 31.2148 105.816 35.384 115.904C37.8968 122 39.6447 128.559 39.176 135.137C37.848 153.794 20.278 166.225 6.23962 178.583C4.25087 180.351 2.26213 182.2 1.10339 184.582C-2.61697 192.228 3.70731 201.039 10.6728 205.915C35.4784 223.27 71.2823 218.108 95.3426 199.734C107.802 190.216 118.511 177.275 133.61 173.044C143.264 170.352 153.511 171.628 163.5 172.458C178.478 173.699 193.525 173.877 208.529 172.992C213.795 172.666 219.302 172.158 223.713 169.265C234.88 161.948 232.996 144.599 241.055 133.956C246.848 126.306 256.747 123.358 265.362 119.129C278.624 112.586 289.69 102.317 297.205 89.5814C304.122 77.8085 307.705 64.4243 311.201 51.2289C313.838 41.3145 316.484 30.9314 314.251 20.916C312.018 10.9007 303.204 1.54937 292.983 2.42819C285.136 3.10196 278.893 9.30254 271.335 11.5224C253.231 16.8539 235.655 -1.66322 216.874 0.123721C205.049 1.24666 195.512 10.2139 188.303 19.6531C181.093 29.0923 174.99 39.7196 165.469 46.8283C150.66 57.895 130.369 58.2856 112.239 54.7019C94.1089 51.1183 76.7148 44.0649 58.3831 41.7149C47.5834 40.3315 39.3062 46.7665 29.5805 50.3045C20.6556 53.5529 9.73538 59.3336 6.4284 69.3425Z" fill="#82DE1B"/>
<path opacity="0.1" d="M44.9014 217.486C57.9774 217.486 68.5775 214.266 68.5775 210.293C68.5775 206.32 57.9774 203.1 44.9014 203.1C31.8254 203.1 21.2252 206.32 21.2252 210.293C21.2252 214.266 31.8254 217.486 44.9014 217.486Z" fill="#82DE1B"/>
<path opacity="0.1" d="M268.767 122.485C303.69 122.485 332 120.607 332 118.29C332 115.973 303.69 114.094 268.767 114.094C233.844 114.094 205.534 115.973 205.534 118.29C205.534 120.607 233.844 122.485 268.767 122.485Z" fill="#82DE1B"/>
<g opacity="0.5">
<path opacity="0.5" d="M230.538 22.2634C231.415 22.2634 232.256 22.6118 232.877 23.232C233.497 23.8522 233.845 24.6933 233.845 25.5704V117.521H227.231V25.5672C227.232 24.6907 227.581 23.8503 228.201 23.2309C228.821 22.6114 229.662 22.2634 230.538 22.2634Z" fill="#82DE1B"/>
<path opacity="0.5" d="M303.1 22.2635C303.977 22.2635 304.818 22.6119 305.438 23.2321C306.058 23.8522 306.407 24.6934 306.407 25.5704V117.521H299.776V25.5672C299.777 25.1318 299.863 24.7008 300.031 24.2989C300.198 23.897 300.443 23.5321 300.752 23.2251C301.061 22.9182 301.427 22.6752 301.83 22.5102C302.233 22.3452 302.664 22.2613 303.1 22.2635Z" fill="#82DE1B"/>
<path opacity="0.5" d="M322.401 42.818C324.228 42.818 325.708 41.3375 325.708 39.5111C325.708 37.6847 324.228 36.2041 322.401 36.2041L211.24 36.2041C209.413 36.2041 207.933 37.6847 207.933 39.5111C207.933 41.3375 209.413 42.818 211.24 42.818L322.401 42.818Z" fill="#82DE1B"/>
<path opacity="0.5" d="M225.265 29.6783C225.265 28.2474 224.105 27.0874 222.674 27.0874C221.243 27.0874 220.083 28.2474 220.083 29.6783V49.3379C220.083 50.7688 221.243 51.9288 222.674 51.9288C224.105 51.9288 225.265 50.7688 225.265 49.3379V29.6783Z" fill="#82DE1B"/>
<path opacity="0.5" d="M220.083 32.0023C220.083 30.5714 218.923 29.4114 217.493 29.4114C216.062 29.4114 214.902 30.5714 214.902 32.0023V47.0171C214.902 48.4481 216.062 49.608 217.493 49.608C218.923 49.608 220.083 48.4481 220.083 47.0171V32.0023Z" fill="#82DE1B"/>
<path opacity="0.5" d="M308.373 49.3376C308.373 50.7685 309.533 51.9285 310.963 51.9285C312.394 51.9285 313.554 50.7685 313.554 49.3376V29.678C313.554 28.247 312.394 27.0871 310.963 27.0871C309.533 27.0871 308.373 28.247 308.373 29.678V49.3376Z" fill="#82DE1B"/>
<path opacity="0.5" d="M313.554 47.0138C313.554 48.4448 314.714 49.6047 316.145 49.6047C317.576 49.6047 318.736 48.4448 318.736 47.0138V31.999C318.736 30.5681 317.576 29.4081 316.145 29.4081C314.714 29.4081 313.554 30.5681 313.554 31.999V47.0138Z" fill="#82DE1B"/>
</g>
<g opacity="0.5">
<path opacity="0.5" d="M260.216 60.7493H273.737C275.205 60.7493 276.612 61.3322 277.65 62.3699C278.688 63.4076 279.271 64.8151 279.271 66.2826V89.5096H254.696V66.2826C254.696 64.8173 255.277 63.4119 256.312 62.3745C257.347 61.3372 258.751 60.7527 260.216 60.7493Z" fill="#82DE1B"/>
<path opacity="0.5" d="M268.767 87.4231H265.17V99.4109H268.767V87.4231Z" fill="#82DE1B"/>
<path opacity="0.5" d="M261.574 100.908H257.977V112.896H261.574V100.908Z" fill="#82DE1B"/>
<path opacity="0.5" d="M276.559 100.908H272.963V112.896H276.559V100.908Z" fill="#82DE1B"/>
<path opacity="0.5" d="M279.258 98.5095H254.683V101.807H279.258V98.5095Z" fill="#82DE1B"/>
</g>
<path opacity="0.1" d="M153.986 198.006C228.466 198.006 288.843 193.578 288.843 188.117C288.843 182.656 228.466 178.229 153.986 178.229C79.5067 178.229 19.1292 182.656 19.1292 188.117C19.1292 193.578 79.5067 198.006 153.986 198.006Z" fill="#82DE1B"/>
<path d="M188.901 152.902C188.901 152.902 198.191 157.098 202.686 157.098C202.686 157.098 207.48 158.296 210.172 159.497C212.864 160.698 223.358 161.293 223.358 161.293C223.358 161.293 235.645 165.788 237.142 167.888C238.64 169.987 243.135 160.402 243.135 160.402L240.736 154.409L195.493 145.719L188.901 152.902Z" fill="#FFB9B9"/>
<path opacity="0.05" d="M188.901 152.902C188.901 152.902 198.191 157.098 202.686 157.098C202.686 157.098 207.48 158.296 210.172 159.497C212.864 160.698 223.358 161.293 223.358 161.293C223.358 161.293 235.645 165.788 237.142 167.888C238.64 169.987 243.135 160.402 243.135 160.402L240.736 154.409L195.493 145.719L188.901 152.902Z" fill="black"/>
<path d="M234.753 166.091C234.753 166.091 240.446 173.578 238.051 178.079C235.655 182.581 236.553 182.574 238.051 182.874C239.548 183.173 247.939 184.973 248.841 178.378C249.742 171.784 251.539 157.101 251.539 157.101L239.235 155.9C239.235 155.9 242.546 166.99 234.753 166.091Z" fill="#737A9D"/>
<path d="M164.027 143.014L189.8 155.002C189.8 155.002 197.891 148.707 197.286 145.413L167.318 138.219L164.027 143.014Z" fill="#4C4C78"/>
<path opacity="0.1" d="M164.027 143.014L189.8 155.002C189.8 155.002 197.891 148.707 197.286 145.413L167.318 138.219L164.027 143.014Z" fill="black"/>
<path d="M272.214 158.598L269.506 165.189L263.224 166.68C261.464 165.211 259.581 163.896 257.596 162.748C254.214 160.795 249.765 158.885 245.553 159.187C245.553 159.187 228.771 156.489 227.873 155.281C227.873 155.281 217.083 152.883 214.687 153.182C213.531 153.325 211.048 152.495 208.789 151.594C206.364 150.617 204.196 149.585 204.196 149.585L211.989 137.298C212.897 137.689 213.833 138.016 214.788 138.275C217.766 139.147 223.127 140.28 230.87 140.28C243.457 140.28 260.838 153.166 260.838 153.166C260.838 153.166 261.011 153.224 261.307 153.312C262.609 153.706 266.319 154.634 268.032 153.166C270.115 151.405 272.214 158.598 272.214 158.598Z" fill="#FFB9B9"/>
<path opacity="0.1" d="M272.214 158.598L269.506 165.19L263.224 166.68C261.464 165.211 259.581 163.896 257.596 162.748C266.736 163.435 261.277 153.345 261.277 153.345H261.297C262.599 153.739 266.31 154.667 268.022 153.199C270.115 151.405 272.214 158.598 272.214 158.598Z" fill="black"/>
<path d="M257.632 163.002C257.632 163.002 264.881 173.167 261.831 178.893C258.781 184.618 259.923 184.615 261.831 184.999C263.738 185.383 274.424 187.671 275.566 179.277C276.445 172.822 275.674 160.434 275.27 155.057C275.244 154.718 275.151 154.387 274.997 154.084C274.842 153.78 274.628 153.511 274.368 153.291C274.109 153.071 273.808 152.905 273.483 152.803C273.158 152.7 272.817 152.663 272.478 152.694L261.876 153.671C261.876 153.671 267.553 164.148 257.632 163.002Z" fill="#737A9D"/>
<path d="M85.5095 172.982L85.809 187.668L89.1062 190.064H100.495L102.591 187.069V172.982L99.294 169.984H88.5073L85.5095 172.982Z" fill="#82DE1B"/>
<path opacity="0.2" d="M87.3062 173.281C87.3062 173.281 89.4056 186.766 87.3062 187.967L85.809 187.668L85.5095 173.284L87.3062 173.281Z" fill="white"/>
<path d="M111.881 172.083L114.28 169.685H125.672L128.071 172.083C128.071 172.083 131.068 180.774 128.67 186.467L125.965 189.165H114.573L111.874 186.766L111.881 172.083Z" fill="#82DE1B"/>
<path opacity="0.1" d="M85.5095 172.982L85.809 187.668L89.1062 190.064H100.495L102.591 187.069V172.982L99.294 169.984H88.5073L85.5095 172.982Z" fill="black"/>
<path opacity="0.1" d="M111.881 172.083L114.28 169.685H125.672L128.071 172.083C128.071 172.083 131.068 180.774 128.67 186.467L125.965 189.165H114.573L111.874 186.766L111.881 172.083Z" fill="black"/>
<path opacity="0.2" d="M114.573 172.682C114.573 172.682 116.971 183.173 114.573 186.766H111.874V172.083L114.573 172.682Z" fill="white"/>
<path d="M102.591 122.335C102.591 122.335 103.789 134.024 103.789 135.521C103.789 137.018 103.19 146.913 104.987 156.499C106.783 166.085 103.789 178.072 103.789 178.072H113.677L117.873 145.706L114.875 128.624L113.677 123.231L102.591 122.335Z" fill="#FFB9B9"/>
<path opacity="0.05" d="M102.591 122.335C102.591 122.335 103.789 134.024 103.789 135.521C103.789 137.018 103.19 146.913 104.987 156.499C106.783 166.085 103.789 178.072 103.789 178.072H113.677L117.873 145.706L114.875 128.624L113.677 123.231L102.591 122.335Z" fill="black"/>
<path d="M100.795 92.6672C100.795 92.6672 87.6089 92.9666 98.0962 114.843C98.0962 114.843 100.795 123.833 100.795 125.333C100.795 126.834 114.28 126.831 115.767 125.333C117.255 123.836 113.368 111.549 113.368 105.853C113.368 100.157 109.485 90.8705 100.795 92.6672Z" fill="#CBCDDA"/>
<path opacity="0.05" d="M100.795 92.6672C100.795 92.6672 87.6089 92.9666 98.0962 114.843C98.0962 114.843 100.795 123.833 100.795 125.333C100.795 126.834 114.28 126.831 115.767 125.333C117.255 123.836 113.368 111.549 113.368 105.853C113.368 100.157 109.485 90.8705 100.795 92.6672Z" fill="black"/>
<path d="M84.9106 79.7744C84.9106 79.7744 96.3027 92.0617 105.888 83.0716L104.691 114.839C104.691 114.839 89.1062 95.961 78.3259 97.4583L84.9106 79.7744Z" fill="#FFB9B9"/>
<path opacity="0.1" d="M214.775 138.311C214.319 141.823 212.887 149.218 208.776 151.613C206.351 150.637 204.183 149.605 204.183 149.605L211.976 137.318C212.884 137.715 213.819 138.046 214.775 138.311Z" fill="black"/>
<path d="M214.075 136.41C214.075 136.41 213.177 151.096 205.983 152.293L162.537 144.456C160.428 144.073 158.446 143.179 156.763 141.852C155.008 140.472 152.857 138.597 151.584 136.878C150.894 135.941 150.478 135.046 150.546 134.307C150.845 131.01 164.031 123.217 159.536 109.433C160.175 108.927 160.886 108.519 161.645 108.222C165.398 106.663 174.036 105.517 186.506 118.423C186.506 118.439 209.58 137.021 214.075 136.41Z" fill="#4C4C78"/>
<path d="M96.599 174.18L96.8985 188.866L100.192 191.265H111.581L113.681 188.267V174.18L110.384 171.185H99.5935L96.599 174.18Z" fill="#82DE1B"/>
<path opacity="0.2" d="M98.3957 174.492C98.3957 174.492 100.495 187.977 98.3957 189.178L96.8985 188.879L96.599 174.492H98.3957Z" fill="white"/>
<path d="M129.565 172.982L131.963 170.583H143.356L145.754 172.982C145.754 172.982 148.752 181.672 146.353 187.365L143.655 190.064H132.263L129.565 187.665V172.982Z" fill="#82DE1B"/>
<path opacity="0.2" d="M132.26 173.581C132.26 173.581 134.658 184.071 132.26 187.665H129.561V172.982L132.26 173.581Z" fill="white"/>
<path d="M113.596 178.678H129.809C131.078 178.678 132.107 179.817 132.107 181.226C132.107 182.632 131.078 183.775 129.809 183.775H113.596C112.219 183.775 111.152 182.444 111.318 180.93C111.451 179.644 112.434 178.678 113.596 178.678Z" fill="#82DE1B"/>
<path opacity="0.1" d="M160.431 131.924C157.225 134.17 153.846 135.642 151.581 136.895C150.891 135.957 150.474 135.062 150.542 134.323C150.842 131.026 164.028 123.234 159.532 109.449C160.172 108.943 160.882 108.535 161.642 108.239C162.346 108.224 163.046 108.128 163.728 107.952C163.728 107.952 166.423 127.729 160.431 131.924Z" fill="black"/>
<path d="M93.152 103.005C93.152 103.005 97.647 107.5 101.992 110.348C106.002 112.975 98.8448 86.522 98.8448 86.522C98.8448 86.522 103.284 82.9416 105.892 80.8161C107.633 79.3837 109.851 78.6628 112.102 78.7981C118.101 79.1854 129.089 81.708 137.956 93.8683C150.842 111.549 162.53 107.952 162.53 107.952C162.53 107.952 165.229 127.732 159.233 131.928C153.237 136.123 146.646 137.621 147.841 140.02C149.035 142.418 142.447 128.331 127.462 125.936C112.476 123.54 95.9935 113.049 96.2962 107.956C96.2995 107.952 91.9542 104.512 93.152 103.005Z" fill="#CBCDDA"/>
<path opacity="0.1" d="M90.0046 87.5859C90.0031 86.7195 89.9269 85.8548 89.7767 85.0015C85.8513 83.0486 86.4079 80.3926 86.4079 80.3926L79.8135 98.0732C82.2254 97.7477 84.8781 98.4247 87.5406 99.7007C91.0462 96.9307 90.0046 92.3674 90.0046 87.5859Z" fill="black"/>
<path d="M76.8189 102.259C85.0952 102.259 91.8045 95.55 91.8045 87.2737C91.8045 78.9974 85.0952 72.2881 76.8189 72.2881C68.5426 72.2881 61.8334 78.9974 61.8334 87.2737C61.8334 95.55 68.5426 102.259 76.8189 102.259Z" fill="#FFB9B9"/>
<path opacity="0.1" d="M63.2036 90.6524C62.927 91.541 62.5006 92.4556 61.6966 92.9308C60.7201 93.5102 59.3726 93.2238 58.5035 92.4751C57.6345 91.7265 57.1658 90.6068 56.9217 89.4871C56.57 87.8659 56.626 86.1828 57.0844 84.5885C57.475 83.2377 58.1488 81.9846 58.4319 80.6013C58.7346 79.13 58.5817 77.5905 58.9202 76.1258C59.3791 74.1403 60.6876 72.477 61.9635 70.8854C62.3634 70.2778 62.8816 69.7572 63.4873 69.3545C64.093 68.9518 64.7736 68.6754 65.4886 68.5418L71.7608 66.6507C72.9499 66.2525 74.172 65.9606 75.4128 65.7784C77.0078 65.6151 78.6194 65.7565 80.1617 66.1951C81.3898 66.504 82.555 67.0238 83.6053 67.7314C84.646 68.5045 85.5625 69.432 86.3232 70.4818C89.6399 74.8173 91.531 81.9097 94.9519 86.1769C93.6012 86.5935 92.2504 85.2004 90.8996 85.6236C90.7076 85.7064 90.4937 85.7235 90.2909 85.6724C90.0901 85.5633 89.9327 85.3887 89.845 85.1777C88.6546 83.0982 86.7811 81.495 84.5428 80.6403C82.8828 80.0121 80.6369 80.0154 79.7288 81.5387C79.1136 82.5672 79.361 83.8659 79.5237 85.054C79.6865 86.242 79.6572 87.6579 78.7165 88.3902C78.1966 88.7416 77.5917 88.9462 76.9653 88.9826C74.0459 89.3653 71.0776 89.0747 68.2878 88.1331C67.3113 87.8076 66.3186 86.7888 65.2868 87.1143C63.8937 87.5537 63.5714 89.4709 63.2036 90.6524Z" fill="black"/>
<path d="M62.8749 90.3235C62.5982 91.212 62.1718 92.1267 61.3679 92.6019C60.3914 93.1813 59.0439 92.8948 58.1748 92.1462C57.3058 91.3976 56.837 90.2779 56.5929 89.1582C56.2413 87.537 56.2972 85.8539 56.7557 84.2596C57.1463 82.9088 57.82 81.6557 58.1032 80.2723C58.4059 78.8011 58.2529 77.2615 58.5914 75.7968C59.0504 73.8113 60.3588 72.1481 61.6348 70.5564C62.0346 69.9489 62.5529 69.4282 63.1586 69.0256C63.7642 68.6229 64.4449 68.3465 65.1598 68.2129L71.432 66.3218C72.6213 65.9247 73.8434 65.6338 75.084 65.4528C76.6791 65.2895 78.2907 65.4308 79.8329 65.8694C81.0611 66.1783 82.2263 66.6981 83.2766 67.4057C84.3173 68.1788 85.2338 69.1063 85.9945 70.1561C89.3112 74.4916 91.2023 81.584 94.6232 85.8512C93.2724 86.2679 91.9216 84.8748 90.5709 85.2979C90.3789 85.3807 90.1649 85.3978 89.9622 85.3467C89.7589 85.2388 89.5991 85.0641 89.5098 84.852C88.3194 82.7726 86.4459 81.1693 84.2075 80.3146C82.5475 79.6864 80.3016 79.6897 79.3935 81.213C78.7783 82.2415 79.0257 83.5402 79.1885 84.7283C79.3512 85.9163 79.3219 87.3322 78.3812 88.0646C77.8614 88.4159 77.2565 88.6205 76.6301 88.6569C73.7107 89.0396 70.7423 88.749 67.9525 87.8074C66.9761 87.4819 65.9833 86.4631 64.9515 86.7886C63.5649 87.2248 63.2427 89.1419 62.8749 90.3235Z" fill="#B96B6B"/>
<g opacity="0.1">
<path opacity="0.1" d="M99.8604 85.7048L98.8448 86.5251C98.8448 86.5251 103.04 102.028 103.206 108.118C105.348 107.539 101.227 90.9517 99.8604 85.7048Z" fill="black"/>
<path opacity="0.1" d="M159.816 129.529C153.823 133.724 147.229 135.222 148.424 137.62C149.618 140.019 143.03 125.932 128.045 123.536C113.987 121.287 98.6105 111.916 97.0091 106.559C94.7632 104.639 93.1293 103.008 93.1293 103.008C91.9315 104.505 96.2768 107.952 96.2768 107.952C95.9773 113.046 112.46 123.536 127.442 125.932C142.425 128.328 149.019 142.415 147.821 140.016C146.624 137.617 153.215 136.11 159.214 131.924C160.929 130.723 161.931 128.246 162.491 125.32C161.912 127.172 161.053 128.673 159.816 129.529Z" fill="black"/>
</g>
<path d="M129.565 158.299C128.666 159.497 128.067 171.784 128.067 171.784C128.067 171.784 131.648 189.465 120.581 187.668C109.514 185.871 119.084 173.284 119.084 173.284L117.587 155.903C111.894 140.931 113.092 130.131 113.092 130.131L112.027 120.343L111.591 116.346L124.477 113.349C124.126 113.817 124.275 116.74 124.591 120.135C125.083 125.454 125.974 131.928 125.974 131.928C128.663 134.922 130.463 157.098 129.565 158.299Z" fill="#FFB9B9"/>
<path opacity="0.1" d="M111.282 86.3754C111.282 86.3754 98.0962 86.6748 108.583 108.551C108.583 108.551 111.282 117.541 111.282 119.042C111.282 120.542 124.767 120.539 126.254 119.042C127.742 117.544 123.855 105.257 123.855 99.561C123.855 93.8649 119.972 84.5754 111.282 86.3754Z" fill="black"/>
<path opacity="0.1" d="M124.581 120.135C121.782 120.9 114.921 120.968 112.014 120.343L111.578 116.346L124.464 113.349C124.119 113.814 124.269 116.737 124.581 120.135Z" fill="black"/>
<path d="M110.683 86.3754C110.683 86.3754 97.4973 86.6748 107.985 108.551C107.985 108.551 110.683 117.541 110.683 119.042C110.683 120.542 124.168 120.539 125.655 119.042C127.143 117.544 123.257 105.257 123.257 99.561C123.257 93.8649 119.374 84.5754 110.683 86.3754Z" fill="#CBCDDA"/>
<g opacity="0.5">
<path opacity="0.5" d="M24.4249 133.288L14.8815 133.484L13.3257 135.625V143.027L15.2721 144.391H24.4249L26.3746 142.249V135.238L24.4249 133.288Z" fill="#82DE1B"/>
<path opacity="0.2" d="M24.2327 134.457C24.2327 134.457 15.4673 135.82 14.6893 134.457L14.8846 133.48L24.2327 133.285V134.457Z" fill="white"/>
<path opacity="0.5" d="M25.206 154.712L26.7651 156.271V163.673L25.206 165.232C25.206 165.232 19.5587 167.185 15.8579 165.622L14.1035 163.868V156.466L15.6626 154.712H25.206Z" fill="#82DE1B"/>
<path opacity="0.2" d="M24.8154 156.466C24.8154 156.466 17.9996 158.025 15.6626 156.466V154.712H25.206L24.8154 156.466Z" fill="white"/>
<path opacity="0.5" d="M21.5051 144.339V154.875C21.4824 155.292 21.2954 155.684 20.985 155.963C20.6745 156.243 20.2659 156.389 19.8484 156.369C19.4309 156.389 19.0223 156.243 18.7118 155.963C18.4014 155.684 18.2144 155.292 18.1917 154.875V144.339C18.1917 143.444 19.0575 142.75 20.0404 142.854C20.4248 142.877 20.787 143.042 21.0574 143.316C21.3279 143.59 21.4873 143.954 21.5051 144.339Z" fill="#82DE1B"/>
<path opacity="0.5" d="M39.7098 133.587L30.1664 133.783L28.6073 135.924V143.326L30.557 144.69H39.7098L41.6562 142.548V135.537L39.7098 133.587Z" fill="#82DE1B"/>
<path opacity="0.2" d="M39.5144 134.759C39.5144 134.759 30.749 136.123 29.9711 134.759L30.1664 133.783L39.5144 133.587V134.759Z" fill="white"/>
<path opacity="0.5" d="M40.4877 155.015L42.0468 156.574V163.975L40.4877 165.535C40.4877 165.535 34.8405 167.488 31.1396 165.925L29.3853 164.171V156.766L30.9444 155.011L40.4877 155.015Z" fill="#82DE1B"/>
<path opacity="0.2" d="M40.1004 156.766C40.1004 156.766 33.2847 158.325 30.9476 156.766V155.011H40.491L40.1004 156.766Z" fill="white"/>
<path opacity="0.5" d="M36.7804 144.638V155.174C36.7577 155.592 36.5707 155.983 36.2602 156.263C35.9498 156.543 35.5412 156.689 35.1237 156.668C34.7061 156.689 34.2975 156.543 33.9871 156.263C33.6767 155.983 33.4896 155.592 33.4669 155.174V144.638C33.4669 143.743 34.3327 143.05 35.3157 143.154C35.7 143.177 36.0623 143.341 36.3327 143.615C36.6031 143.889 36.7626 144.254 36.7804 144.638Z" fill="#82DE1B"/>
<path opacity="0.5" d="M59.1676 139.225L51.3103 139.385L50.0278 141.149V147.242L51.6325 148.362H59.1676L60.769 146.597V140.827L59.1676 139.225Z" fill="#82DE1B"/>
<path opacity="0.2" d="M59.0048 140.185C59.0048 140.185 51.7887 141.308 51.1475 140.185L51.307 139.385L59.0015 139.225L59.0048 140.185Z" fill="white"/>
<path opacity="0.5" d="M59.8088 156.86L61.0913 158.143V164.236L59.8088 165.518C59.8088 165.518 55.1608 167.123 52.1142 165.844L50.6691 164.402V158.302L51.9515 156.86H59.8088Z" fill="#82DE1B"/>
<path opacity="0.2" d="M59.4865 158.302C59.4865 158.302 53.8751 159.584 51.9514 158.302V156.86H59.8087L59.4865 158.302Z" fill="white"/>
<path opacity="0.5" d="M56.7623 148.319V156.994C56.7421 157.336 56.5875 157.657 56.3321 157.886C56.0767 158.115 55.7412 158.234 55.3985 158.217C55.0547 158.234 54.7182 158.114 54.4626 157.884C54.2071 157.653 54.0532 157.331 54.0347 156.987V148.319C54.046 148.136 54.0956 147.957 54.1802 147.794C54.2648 147.63 54.3827 147.487 54.5261 147.372C54.6696 147.257 54.8355 147.173 55.0132 147.126C55.1909 147.079 55.3764 147.07 55.558 147.099C55.874 147.118 56.1718 147.253 56.3941 147.478C56.6164 147.703 56.7476 148.003 56.7623 148.319Z" fill="#82DE1B"/>
<path opacity="0.5" d="M71.7478 139.469L63.8905 139.632L62.608 141.393V147.486L64.2127 148.609H71.7478L73.3525 146.845V141.074L71.7478 139.469Z" fill="#82DE1B"/>
<path opacity="0.2" d="M71.5883 140.433C71.5883 140.433 64.3722 141.556 63.731 140.433L63.8905 139.632L71.585 139.473L71.5883 140.433Z" fill="white"/>
<path opacity="0.5" d="M72.389 157.108L73.6714 158.39V164.483L72.389 165.766C72.389 165.766 67.741 167.37 64.6944 166.091L63.2524 164.649V158.543L64.5349 157.101L72.389 157.108Z" fill="#82DE1B"/>
<path opacity="0.2" d="M72.07 158.543C72.07 158.543 66.4586 159.825 64.5349 158.543V157.101H72.389L72.07 158.543Z" fill="white"/>
<path opacity="0.5" d="M69.3294 148.567V157.241C69.3109 157.585 69.157 157.907 68.9015 158.138C68.6459 158.368 68.3094 158.488 67.9656 158.471C67.6218 158.488 67.2853 158.368 67.0298 158.138C66.7742 157.907 66.6203 157.585 66.6018 157.241V148.567C66.6131 148.383 66.6627 148.204 66.7473 148.041C66.832 147.878 66.9498 147.734 67.0932 147.619C67.2367 147.504 67.4026 147.42 67.5803 147.373C67.758 147.326 67.9436 147.317 68.1251 147.346C68.4411 147.365 68.7389 147.5 68.9613 147.725C69.1836 147.951 69.3147 148.25 69.3294 148.567Z" fill="#82DE1B"/>
</g>
<g opacity="0.8">
<path opacity="0.8" d="M38.141 191.743C38.141 191.743 33.5288 190.18 31.3057 194.246C30.72 195.348 30.4219 196.58 30.4389 197.827C30.456 199.075 30.7877 200.298 31.4033 201.384C32.8615 204.02 35.8658 207.441 41.5586 207.138C46.3889 206.881 47.9936 203.194 48.4297 199.766C48.5965 198.481 48.4306 197.174 47.9478 195.971C47.465 194.767 46.6814 193.708 45.6721 192.895C44.6629 192.081 43.4617 191.54 42.1835 191.324C40.9053 191.107 39.593 191.222 38.3721 191.658L38.141 191.743Z" fill="#82DE1B"/>
<path opacity="0.1" d="M32.383 201.745C31.7674 200.66 31.4357 199.436 31.4187 198.189C31.4016 196.941 31.6997 195.709 32.2854 194.607C34.5052 190.542 39.1207 192.104 39.1207 192.104L39.3583 192.019C41.1167 191.383 43.0493 191.426 44.7777 192.14C43.823 191.57 42.7536 191.22 41.647 191.114C40.5403 191.008 39.424 191.15 38.3786 191.528L38.141 191.613C38.141 191.613 33.5288 190.05 31.3057 194.116C30.72 195.217 30.4219 196.449 30.4389 197.697C30.456 198.945 30.7877 200.168 31.4033 201.254C32.3798 202.988 34.0072 205.062 36.6112 206.191C34.8231 205.122 33.361 203.585 32.383 201.745Z" fill="white"/>
<path opacity="0.2" d="M35.7584 193.696C35.7584 193.696 37.4672 195.04 41.6172 193.696H35.7584Z" fill="black"/>
<path opacity="0.8" d="M35.3939 183.931C35.3939 183.931 38.3233 191.873 38.0825 193.95L40.4032 193.706C40.4032 193.706 36.4973 186.743 37.4738 183.941L35.3939 183.931Z" fill="#82DE1B"/>
<path opacity="0.2" d="M35.3939 183.931C35.3939 183.931 38.3233 191.873 38.0825 193.95L40.4032 193.706C40.4032 193.706 36.4973 186.743 37.4738 183.941L35.3939 183.931Z" fill="black"/>
<path opacity="0.8" d="M47.3589 184.582C47.3589 184.582 42.7434 182.222 40.6798 184.172C38.6162 186.122 38.2972 191.105 38.2972 191.105C38.2972 191.105 45.8226 192.143 47.3589 184.582Z" fill="#82DE1B"/>
<path opacity="0.1" d="M47.3589 184.582C47.3589 184.582 42.7434 182.222 40.6798 184.172C38.6162 186.122 38.2972 191.105 38.2972 191.105C38.2972 191.105 45.8226 192.143 47.3589 184.582Z" fill="white"/>
<path opacity="0.8" d="M38.2972 191.092C38.2972 191.092 39.5081 185.308 47.3589 184.582" stroke="#82DE1B" stroke-width="0.32549" stroke-miterlimit="10"/>
</g>
<path d="M57.6118 198.933C57.6118 198.933 52.9996 197.371 50.7765 201.436C50.1908 202.538 49.8927 203.77 49.9098 205.018C49.9268 206.265 50.2585 207.489 50.8741 208.574C52.3323 211.21 55.3366 214.631 61.0294 214.329C65.8597 214.072 67.4644 210.384 67.9005 206.956C68.0674 205.671 67.9014 204.364 67.4186 203.161C66.9358 201.958 66.1522 200.899 65.143 200.085C64.1337 199.271 62.9325 198.73 61.6543 198.514C60.3762 198.297 59.0638 198.413 57.8429 198.848L57.6118 198.933Z" fill="#82DE1B"/>
<path opacity="0.1" d="M51.8635 208.939C51.2479 207.853 50.9162 206.63 50.8991 205.382C50.8821 204.135 51.1802 202.903 51.7659 201.801C53.9857 197.736 58.6012 199.298 58.6012 199.298L58.8388 199.213C60.5972 198.577 62.5298 198.62 64.2582 199.334C63.3034 198.764 62.2341 198.414 61.1274 198.308C60.0208 198.202 58.9044 198.344 57.859 198.722L57.6214 198.806C57.6214 198.806 53.0092 197.244 50.7861 201.309C50.2004 202.411 49.9023 203.643 49.9194 204.891C49.9365 206.139 50.2682 207.362 50.8838 208.447C51.8603 210.182 53.4877 212.256 56.0916 213.385C54.3035 212.316 52.8415 210.779 51.8635 208.939Z" fill="white"/>
<path opacity="0.2" d="M55.2389 200.886C55.2389 200.886 56.9477 202.231 61.0977 200.886H55.2389Z" fill="black"/>
<path d="M54.8712 191.115C54.8712 191.115 57.8006 199.057 57.5598 201.133L59.8805 200.889C59.8805 200.889 55.9746 193.927 56.9511 191.125L54.8712 191.115Z" fill="#82DE1B"/>
<path opacity="0.2" d="M54.8712 191.115C54.8712 191.115 57.8006 199.057 57.5598 201.133L59.8805 200.889C59.8805 200.889 55.9746 193.927 56.9511 191.125L54.8712 191.115Z" fill="black"/>
<path d="M66.8395 191.775C66.8395 191.775 62.224 189.416 60.1604 191.365C58.0968 193.315 57.7778 198.298 57.7778 198.298C57.7778 198.298 65.3032 199.333 66.8395 191.775Z" fill="#82DE1B"/>
<path opacity="0.1" d="M66.8395 191.775C66.8395 191.775 62.224 189.416 60.1604 191.365C58.0968 193.315 57.7778 198.298 57.7778 198.298C57.7778 198.298 65.3032 199.333 66.8395 191.775Z" fill="white"/>
<path d="M57.7778 198.298C57.7778 198.298 58.9887 192.514 66.8395 191.789" stroke="#82DE1B" stroke-width="0.32549" stroke-miterlimit="10"/>
<path d="M20.5059 180.081C20.5059 180.081 20.9584 179.576 20.1088 179.375V178.545H20.6199C20.6194 177.541 20.2746 176.568 19.6431 175.789C19.0115 175.009 18.1315 174.47 17.1501 174.261V173.255H17.2836V171.953H13.9961V173.255H14.0905V174.274C13.1221 174.494 12.2571 175.036 11.6374 175.812C11.0176 176.588 10.6798 177.552 10.6794 178.545H11.1351V179.342C11.1351 179.342 10.0544 179.853 11.1351 180.764C12.2157 181.676 12.0464 182.356 12.0464 182.356C12.0464 182.356 11.5908 184.062 10.6826 184.289V200.157C10.6826 201.092 11.054 201.989 11.7151 202.65C12.3762 203.311 13.2728 203.682 14.2077 203.682H16.9939C17.926 203.679 18.8187 203.306 19.4769 202.646C20.1351 201.986 20.5051 201.092 20.5059 200.16V184.289C20.5059 184.289 18.9143 183.095 19.204 182.356C19.5818 181.567 20.0169 180.806 20.5059 180.081Z" fill="#82DE1B"/>
</g>
<defs>
<clipPath id="clip0_32_1901">
<rect width="332" height="217.486" fill="white"/>
</clipPath>
</defs>
</svg>
